<svg width="66" height="20" viewBox="0 0 66 20" fill="none" xmlns="http://www.w3.org/2000/svg">
<g clip-path="url(#clip0_24_1827)">
<path d="M7.047 6.9823C7.04646 7.12775 6.9867 7.2671 6.88075 7.36995C6.77481 7.4728 6.63127 7.53081 6.48144 7.53134C6.34801 7.53103 6.21893 7.48528 6.1167 7.40204C6.1167 7.04795 6.14539 5.6117 6.14539 5.25562C6.25615 5.23559 6.36886 5.22758 6.48144 5.23175C6.79291 5.23175 7.047 5.24568 7.047 5.54805V6.9823Z" fill="url(#paint0_linear_24_1827)"/>
<path style="mix-blend-mode:multiply" d="M65.9982 18.4683C65.9982 18.8144 51.224 19.0929 33.0074 19.0929C14.7907 19.0929 0.0166016 18.8144 0.0166016 18.4683C0.0166016 18.1221 14.7907 17.8456 33.0074 17.8456C51.224 17.8456 65.9982 18.1241 65.9982 18.4683Z" fill="url(#paint1_radial_24_1827)"/>
<path style="mix-blend-mode:multiply" d="M21.9955 19.3754C21.9955 19.7215 20.3746 20 18.3747 20C16.3748 20 14.7539 19.7215 14.7539 19.3754C14.7539 19.0293 16.3748 18.7527 18.3747 18.7527C20.3746 18.7527 21.9955 19.0312 21.9955 19.3754Z" fill="url(#paint2_radial_24_1827)"/>
<path style="mix-blend-mode:multiply" d="M52.552 19.3754C52.552 19.7215 50.9312 20 48.9312 20C46.9313 20 45.3125 19.7215 45.3125 19.3754C45.3125 19.0292 46.9333 18.7507 48.9312 18.7507C50.9291 18.7507 52.552 19.0312 52.552 19.3754Z" fill="url(#paint3_radial_24_1827)"/>
<path style="mix-blend-mode:multiply" d="M58.3876 19.3754C58.3876 19.7215 56.7667 20 54.7688 20C52.7709 20 51.146 19.7215 51.146 19.3754C51.146 19.0292 52.7689 18.7507 54.7688 18.7507C56.7688 18.7507 58.3876 19.0312 58.3876 19.3754Z" fill="url(#paint4_radial_24_1827)"/>
<path d="M19.7456 1.08813V17.0519H58.98L62.1316 16.7078C62.3306 16.6819 62.5134 16.5872 62.6463 16.441C62.7792 16.2949 62.8532 16.107 62.8549 15.9121V1.08813H19.7456Z" fill="url(#paint5_linear_24_1827)"/>
<g style="mix-blend-mode:multiply">
<path d="M9.24366 3.51302L9.12891 4.0163H19.7679L19.6368 3.49512L9.24366 3.51302Z" fill="url(#paint6_linear_24_1827)"/>
</g>
<path d="M13.4467 1.08612C10.6271 1.08612 9.43245 2.35527 9.34844 3.19871L9.17016 4.0163L7.90381 10.5152V16.3457C7.90381 16.533 7.98045 16.7126 8.11687 16.8451C8.25329 16.9775 8.43832 17.0519 8.63125 17.0519H19.7395L19.7702 4.0163L19.7477 1.08811L13.4467 1.08612Z" fill="url(#paint7_linear_24_1827)"/>
<path d="M23.6266 13.899H23.4771V17.048H23.6266V13.899Z" fill="url(#paint8_linear_24_1827)"/>
<path d="M27.0485 13.899H26.8989V17.048H27.0485V13.899Z" fill="url(#paint9_linear_24_1827)"/>
<path d="M36.9274 13.899H36.7778V17.048H36.9274V13.899Z" fill="url(#paint10_linear_24_1827)"/>
<path d="M40.3493 13.899H40.1997V17.048H40.3493V13.899Z" fill="url(#paint11_linear_24_1827)"/>
<path d="M44.841 15.6813H20.1245V14.9572H44.841C44.8872 14.9575 44.933 14.9666 44.9757 14.984C45.0183 15.0015 45.057 15.0269 45.0896 15.0589C45.1221 15.0908 45.1479 15.1287 45.1653 15.1703C45.1828 15.2119 45.1916 15.2565 45.1914 15.3014V15.3392C45.1914 15.4296 45.1545 15.5163 45.0889 15.5804C45.0232 15.6445 44.9341 15.6808 44.841 15.6813Z" fill="url(#paint12_linear_24_1827)"/>
<path d="M58.4002 14.6946H60.103C60.1637 14.6962 60.2215 14.7204 60.2643 14.7623C60.307 14.8042 60.3315 14.8605 60.3325 14.9194V15.739C60.3325 15.7991 60.3079 15.8568 60.2641 15.8994C60.2203 15.9419 60.1609 15.9658 60.0989 15.9658H58.4002C58.3377 15.9658 58.2778 15.9417 58.2336 15.8988C58.1894 15.8559 58.1646 15.7977 58.1646 15.737V14.9194C58.1656 14.8594 58.1909 14.8023 58.235 14.7602C58.2791 14.7182 58.3384 14.6946 58.4002 14.6946Z" fill="url(#paint13_linear_24_1827)"/>
<path d="M38.7716 16.0812H38.3843C38.3549 16.0812 38.3311 16.1043 38.3311 16.1329V16.3199C38.3311 16.3485 38.3549 16.3716 38.3843 16.3716H38.7716C38.801 16.3716 38.8249 16.3485 38.8249 16.3199V16.1329C38.8249 16.1043 38.801 16.0812 38.7716 16.0812Z" fill="url(#paint14_linear_24_1827)"/>
<path d="M25.3561 16.0812H24.9688C24.9394 16.0812 24.9155 16.1043 24.9155 16.1329V16.3199C24.9155 16.3485 24.9394 16.3716 24.9688 16.3716H25.3561C25.3855 16.3716 25.4094 16.3485 25.4094 16.3199V16.1329C25.4094 16.1043 25.3855 16.0812 25.3561 16.0812Z" fill="url(#paint15_linear_24_1827)"/>
<path d="M16.4831 13.9109C16.4831 13.9473 16.4682 13.9822 16.4417 14.0079C16.4152 14.0337 16.3792 14.0481 16.3417 14.0481H15.6409C15.6034 14.0481 15.5674 14.0337 15.5409 14.0079C15.5144 13.9822 15.4995 13.9473 15.4995 13.9109C15.4995 13.8745 15.5144 13.8396 15.5409 13.8138C15.5674 13.7881 15.6034 13.7736 15.6409 13.7736H16.3417C16.3792 13.7736 16.4152 13.7881 16.4417 13.8138C16.4682 13.8396 16.4831 13.8745 16.4831 13.9109Z" fill="#A15600"/>
<path d="M16.4831 13.887C16.4826 13.9231 16.4674 13.9575 16.441 13.9828C16.4145 14.0081 16.3789 14.0223 16.3417 14.0223H15.6409C15.6038 14.0223 15.5681 14.0081 15.5417 13.9828C15.5152 13.9575 15.5001 13.9231 15.4995 13.887C15.4993 13.8688 15.5027 13.8508 15.5097 13.8339C15.5167 13.817 15.5271 13.8016 15.5402 13.7887C15.5534 13.7757 15.569 13.7654 15.5863 13.7584C15.6036 13.7514 15.6222 13.7478 15.6409 13.7478H16.3417C16.3605 13.7478 16.379 13.7514 16.3963 13.7584C16.4136 13.7654 16.4293 13.7757 16.4424 13.7887C16.4556 13.8016 16.466 13.817 16.4729 13.8339C16.4799 13.8508 16.4834 13.8688 16.4831 13.887Z" fill="url(#paint16_linear_24_1827)"/>
<path d="M59.738 15.3312C59.738 15.3676 59.7231 15.4025 59.6966 15.4283C59.67 15.454 59.6341 15.4685 59.5966 15.4685H58.8958C58.8583 15.4685 58.8223 15.454 58.7958 15.4283C58.7693 15.4025 58.7544 15.3676 58.7544 15.3312C58.7544 15.3133 58.7581 15.2955 58.7652 15.279C58.7723 15.2624 58.7828 15.2474 58.7959 15.2348C58.8091 15.2223 58.8247 15.2123 58.8418 15.2057C58.859 15.199 58.8773 15.1957 58.8958 15.1959H59.5966C59.6151 15.1957 59.6334 15.199 59.6505 15.2057C59.6677 15.2123 59.6833 15.2223 59.6964 15.2348C59.7096 15.2474 59.72 15.2624 59.7272 15.279C59.7343 15.2955 59.738 15.3133 59.738 15.3312Z" fill="#A15600"/>
<path d="M59.738 15.3073C59.738 15.3437 59.7231 15.3787 59.6966 15.4044C59.67 15.4301 59.6341 15.4446 59.5966 15.4446H58.8958C58.8583 15.4446 58.8223 15.4301 58.7958 15.4044C58.7693 15.3787 58.7544 15.3437 58.7544 15.3073C58.7544 15.2709 58.7693 15.236 58.7958 15.2103C58.8223 15.1845 58.8583 15.1701 58.8958 15.1701H59.5966C59.6341 15.1701 59.67 15.1845 59.6966 15.2103C59.7231 15.236 59.738 15.2709 59.738 15.3073Z" fill="url(#paint17_linear_24_1827)"/>
<path style="mix-blend-mode:multiply" d="M8.96729 16.6163V15.7509C8.96729 15.4884 9.46932 15.2755 10.0902 15.2755H14.4487V16.6163H8.96729Z" fill="url(#paint18_linear_24_1827)"/>
<path d="M14.4487 16.483H8.96729V16.6163H14.4487V16.483Z" fill="url(#paint19_linear_24_1827)"/>
<path d="M7.90137 16.2244L8.63495 16.1786V15.2377L7.90137 15.1363V16.2244ZM8.48946 15.2954V16.109L8.01612 16.1369V15.2377L8.48946 15.2954Z" fill="url(#paint20_linear_24_1827)"/>
<path d="M8.60666 16.1448L7.90381 16.1846V15.18L8.60666 15.2656V16.1448Z" fill="url(#paint21_linear_24_1827)"/>
<path d="M8.25382 15.7012C8.25382 15.8623 8.1739 15.9936 8.07759 15.9936C7.98128 15.9936 7.90137 15.8623 7.90137 15.7012C7.90137 15.5401 7.98128 15.4088 8.07759 15.4088C8.1739 15.4088 8.25382 15.5401 8.25382 15.7012Z" fill="url(#paint22_linear_24_1827)"/>
<path d="M48.9311 14.3406C48.4002 14.3411 47.8804 14.4885 47.4326 14.7654C46.9848 15.0423 46.6275 15.4373 46.4025 15.9041L46.171 16.6481C46.1489 16.7797 46.138 16.9127 46.1382 17.046H51.7261C51.7234 16.3279 51.4278 15.6401 50.904 15.1331C50.3802 14.626 49.6708 14.3411 48.9311 14.3406Z" fill="black"/>
<path d="M51.3265 17.0519C51.3265 17.5118 51.186 17.9614 50.9228 18.3439C50.6596 18.7263 50.2855 19.0243 49.8477 19.2003C49.41 19.3763 48.9284 19.4224 48.4637 19.3327C47.9991 19.2429 47.5723 19.0215 47.2372 18.6962C46.9022 18.371 46.6741 17.9567 46.5817 17.5056C46.4892 17.0545 46.5367 16.5869 46.718 16.162C46.8993 15.7371 47.2063 15.3739 47.6002 15.1184C47.9942 14.8629 48.4573 14.7265 48.9311 14.7265C49.2457 14.7262 49.5573 14.7862 49.8481 14.9029C50.1388 15.0197 50.403 15.191 50.6255 15.407C50.848 15.623 51.0244 15.8794 51.1447 16.1617C51.265 16.444 51.3267 16.7465 51.3265 17.0519Z" fill="url(#paint23_radial_24_1827)"/>
<path d="M48.9312 18.4066C48.6547 18.4066 48.3844 18.327 48.1546 18.1778C47.9247 18.0287 47.7456 17.8167 47.6399 17.5687C47.5342 17.3206 47.5066 17.0478 47.5607 16.7845C47.6148 16.5213 47.7481 16.2796 47.9437 16.0899C48.1394 15.9003 48.3886 15.7712 48.6598 15.7191C48.931 15.667 49.2121 15.6941 49.4674 15.7971C49.7227 15.9001 49.9409 16.0743 50.0942 16.2977C50.2475 16.521 50.3291 16.7835 50.3287 17.0519C50.3281 17.4114 50.1807 17.756 49.9186 18.01C49.6566 18.264 49.3015 18.4066 48.9312 18.4066Z" fill="url(#paint24_radial_24_1827)"/>
<path style="mix-blend-mode:multiply" d="M48.9312 18.4066C48.6547 18.4066 48.3844 18.327 48.1546 18.1778C47.9247 18.0287 47.7456 17.8167 47.6399 17.5687C47.5342 17.3206 47.5066 17.0478 47.5607 16.7845C47.6148 16.5213 47.7481 16.2796 47.9437 16.0899C48.1394 15.9003 48.3886 15.7712 48.6598 15.7191C48.931 15.667 49.2121 15.6941 49.4674 15.7971C49.7227 15.9001 49.9409 16.0743 50.0942 16.2977C50.2475 16.521 50.3291 16.7835 50.3287 17.0519C50.3281 17.4114 50.1807 17.756 49.9186 18.01C49.6566 18.264 49.3015 18.4066 48.9312 18.4066Z" fill="url(#paint25_linear_24_1827)"/>
<path d="M48.9313 17.4378C48.8522 17.4378 48.7749 17.415 48.7091 17.3723C48.6434 17.3296 48.5921 17.2689 48.562 17.1979C48.5318 17.1269 48.524 17.0488 48.5396 16.9735C48.5552 16.8982 48.5934 16.8291 48.6495 16.7749C48.7056 16.7208 48.777 16.684 48.8546 16.6692C48.9323 16.6545 49.0127 16.6625 49.0856 16.6921C49.1586 16.7218 49.2209 16.7718 49.2645 16.8359C49.3082 16.8999 49.3313 16.9751 49.3309 17.0519C49.3309 17.1028 49.3205 17.1531 49.3004 17.2001C49.2803 17.247 49.2509 17.2896 49.2137 17.3255C49.1766 17.3614 49.1325 17.3898 49.0841 17.409C49.0356 17.4283 48.9837 17.4381 48.9313 17.4378Z" fill="#1C2426"/>
<path d="M54.7691 14.3406C54.2379 14.341 53.7178 14.4883 53.2696 14.7652C52.8215 15.0421 52.4638 15.4371 52.2385 15.9041L52.0069 16.6481C51.9859 16.7798 51.9749 16.9127 51.9741 17.046H57.5621C57.5594 16.3282 57.264 15.6407 56.7407 15.1338C56.2173 14.6268 55.5085 14.3416 54.7691 14.3406Z" fill="black"/>
<path d="M57.1624 17.0519C57.1624 17.5119 57.0219 17.9616 56.7586 18.3441C56.4953 18.7265 56.121 19.0246 55.6832 19.2005C55.2454 19.3765 54.7636 19.4224 54.2989 19.3325C53.8342 19.2426 53.4074 19.021 53.0725 18.6955C52.7375 18.3701 52.5096 17.9556 52.4174 17.5044C52.3252 17.0531 52.3729 16.5855 52.5545 16.1606C52.7361 15.7357 53.0435 15.3727 53.4377 15.1174C53.8319 14.8621 54.2952 14.7261 54.769 14.7265C55.0835 14.7265 55.3949 14.7866 55.6854 14.9035C55.9759 15.0204 56.2399 15.1917 56.4621 15.4077C56.6844 15.6237 56.8607 15.88 56.9808 16.1622C57.101 16.4443 57.1627 16.7466 57.1624 17.0519Z" fill="url(#paint26_radial_24_1827)"/>
<path d="M54.7692 18.4066C54.4926 18.407 54.2221 18.3277 53.992 18.1788C53.7619 18.0299 53.5824 17.818 53.4764 17.57C53.3704 17.3221 53.3425 17.0491 53.3964 16.7858C53.4502 16.5224 53.5834 16.2805 53.7789 16.0906C53.9745 15.9008 54.2237 15.7715 54.495 15.7192C54.7663 15.667 55.0474 15.694 55.3029 15.7969C55.5583 15.8998 55.7766 16.074 55.93 16.2975C56.0834 16.5209 56.165 16.7834 56.1646 17.0519C56.1646 17.4112 56.0176 17.7558 55.7559 18.0098C55.4942 18.2639 55.1393 18.4066 54.7692 18.4066Z" fill="url(#paint27_radial_24_1827)"/>
<path style="mix-blend-mode:multiply" d="M54.7692 18.4066C54.4926 18.407 54.2221 18.3277 53.992 18.1788C53.7619 18.0299 53.5824 17.818 53.4764 17.57C53.3704 17.3221 53.3425 17.0491 53.3964 16.7858C53.4502 16.5224 53.5834 16.2805 53.7789 16.0906C53.9745 15.9008 54.2237 15.7715 54.495 15.7192C54.7663 15.667 55.0474 15.694 55.3029 15.7969C55.5583 15.8998 55.7766 16.074 55.93 16.2975C56.0834 16.5209 56.165 16.7834 56.1646 17.0519C56.1641 17.4111 56.0169 17.7553 55.7553 18.0093C55.4937 18.2632 55.1391 18.4061 54.7692 18.4066Z" fill="url(#paint28_linear_24_1827)"/>
<path d="M54.7688 17.4378C54.6896 17.4382 54.6121 17.4157 54.546 17.3733C54.48 17.3308 54.4285 17.2702 54.398 17.1993C54.3675 17.1283 54.3594 17.0502 54.3748 16.9747C54.3901 16.8993 54.4282 16.83 54.4842 16.7756C54.5402 16.7213 54.6116 16.6843 54.6893 16.6694C54.767 16.6545 54.8475 16.6623 54.9206 16.6919C54.9937 16.7215 55.0561 16.7716 55.0999 16.8357C55.1436 16.8997 55.1667 16.975 55.1663 17.0519C55.1663 17.1543 55.1245 17.2524 55.0499 17.3248C54.9754 17.3972 54.8742 17.4378 54.7688 17.4378Z" fill="#1C2426"/>
<path d="M18.4853 14.3406C17.9542 14.3412 17.4341 14.4886 16.986 14.7655C16.5379 15.0423 16.1802 15.4373 15.9547 15.9041L15.7231 16.6481C15.7028 16.7798 15.6925 16.9128 15.6924 17.046H21.2783C21.2756 16.3282 20.9802 15.6407 20.4569 15.1338C19.9335 14.6268 19.2247 14.3416 18.4853 14.3406Z" fill="black"/>
<path d="M20.887 17.0519C20.887 17.5116 20.7467 17.961 20.4838 18.3433C20.2208 18.7255 19.8471 19.0236 19.4097 19.1998C18.9724 19.376 18.491 19.4224 18.0265 19.3331C17.562 19.2439 17.1352 19.023 16.8 18.6984C16.4647 18.3737 16.2361 17.9599 16.143 17.5092C16.0499 17.0585 16.0964 16.5912 16.2768 16.1661C16.4571 15.7411 16.7632 15.3775 17.1563 15.1213C17.5494 14.865 18.012 14.7277 18.4855 14.7265C18.8006 14.7254 19.1129 14.7848 19.4044 14.9012C19.6958 15.0177 19.9607 15.1888 20.1839 15.4049C20.407 15.621 20.584 15.8777 20.7047 16.1603C20.8253 16.443 20.8873 16.746 20.887 17.0519Z" fill="url(#paint29_radial_24_1827)"/>
<path d="M18.4855 18.4066C18.2089 18.407 17.9384 18.3277 17.7083 18.1788C17.4782 18.0299 17.2987 17.818 17.1927 17.57C17.0867 17.3221 17.0588 17.0491 17.1127 16.7858C17.1665 16.5224 17.2997 16.2805 17.4953 16.0906C17.6908 15.9008 17.94 15.7715 18.2113 15.7192C18.4826 15.667 18.7637 15.694 19.0192 15.7969C19.2746 15.8998 19.4929 16.074 19.6463 16.2975C19.7997 16.5209 19.8813 16.7834 19.8809 17.0519C19.8804 17.4111 19.7332 17.7553 19.4716 18.0093C19.21 18.2632 18.8554 18.4061 18.4855 18.4066Z" fill="url(#paint30_radial_24_1827)"/>
<path style="mix-blend-mode:multiply" d="M18.4855 18.4066C18.2089 18.407 17.9384 18.3277 17.7083 18.1788C17.4782 18.0299 17.2987 17.818 17.1927 17.57C17.0867 17.3221 17.0588 17.0491 17.1127 16.7858C17.1665 16.5224 17.2997 16.2805 17.4953 16.0906C17.6908 15.9008 17.94 15.7715 18.2113 15.7192C18.4826 15.667 18.7637 15.694 19.0192 15.7969C19.2746 15.8998 19.4929 16.074 19.6463 16.2975C19.7997 16.5209 19.8813 16.7834 19.8809 17.0519C19.8809 17.4112 19.7339 17.7558 19.4722 18.0098C19.2105 18.2639 18.8556 18.4066 18.4855 18.4066Z" fill="url(#paint31_linear_24_1827)"/>
<path d="M18.4855 17.4378C18.4069 17.4359 18.3306 17.4114 18.2662 17.3675C18.2018 17.3236 18.1522 17.2623 18.1236 17.1911C18.0949 17.12 18.0886 17.0422 18.1053 16.9676C18.122 16.893 18.1611 16.8248 18.2176 16.7716C18.274 16.7184 18.3454 16.6826 18.4228 16.6687C18.5001 16.6547 18.58 16.6632 18.6524 16.6932C18.7248 16.7231 18.7864 16.7731 18.8296 16.8369C18.8729 16.9007 18.8957 16.9755 18.8953 17.0519C18.8954 17.1036 18.8847 17.1548 18.864 17.2024C18.8432 17.25 18.8128 17.2931 18.7746 17.3291C18.7364 17.3651 18.6911 17.3933 18.6414 17.4119C18.5918 17.4306 18.5387 17.4394 18.4855 17.4378Z" fill="#1C2426"/>
<path d="M42.0217 1.08613H30.3643L31.3376 0H41.0484L42.0217 1.08613Z" fill="url(#paint32_linear_24_1827)"/>
<path d="M54.2527 0.742004H47.3164V1.08615H54.2527V0.742004Z" fill="url(#paint33_linear_24_1827)"/>
<path d="M26.1696 0.742004H19.2354V1.08615H26.1696V0.742004Z" fill="url(#paint34_linear_24_1827)"/>
<path d="M61.736 12.9998H14.6309V13.4155H61.736V12.9998Z" fill="url(#paint35_linear_24_1827)"/>
<path d="M62.8486 13.8313C62.2154 13.8313 61.2441 13.8313 61.2441 13.8313V14.6031H62.8486V13.8313Z" fill="url(#paint36_linear_24_1827)"/>
<path style="mix-blend-mode:screen" d="M61.4224 14.4719V13.9964H62.8567V14.4719H61.4224Z" fill="url(#paint37_linear_24_1827)"/>
<path style="mix-blend-mode:overlay" d="M62.8489 14.1018H62.1665L62.1686 14.3823H62.8489V14.1018Z" fill="url(#paint38_linear_24_1827)"/>
<path d="M51.1874 2.02905H12.789C11.9789 2.05256 11.2001 2.33822 10.5763 2.84065C9.9526 3.34308 9.51972 4.03345 9.34647 4.80208L8.78091 7.7422C8.69895 8.17387 8.24609 9.64393 8.24609 10.5152C8.24609 12.8606 8.26863 15.011 8.26863 15.011H8.71124C9.14566 14.6469 9.94071 13.5707 10.3505 13.2047L12.2501 11.4522C14.3463 9.51662 19.3011 7.94511 23.3153 7.94511H62.0723C62.0723 6.68193 62.0457 3.706 62.0457 2.02905H51.1853H51.1874Z" fill="url(#paint39_linear_24_1827)"/>
<path d="M9.11279 8.09827L9.68655 5.22379C9.866 4.45327 10.3046 3.76268 10.9331 3.26093C11.5616 2.75918 12.3443 2.47484 13.1578 2.45276H16.4978C16.8216 2.45276 16.3585 7.52338 16.0347 7.52338L9.11279 8.09827Z" fill="url(#paint40_linear_24_1827)"/>
<path d="M9.11262 8.19774C9.09825 8.19758 9.08407 8.19449 9.07101 8.18867C9.05795 8.18284 9.04629 8.17441 9.0368 8.16392C9.02669 8.15261 9.01939 8.1392 9.01548 8.12471C9.01157 8.11022 9.01116 8.09505 9.01426 8.08038L9.58802 5.20391C9.77343 4.4119 10.2246 3.70213 10.8708 3.18615C11.5169 2.67016 12.3213 2.3772 13.1576 2.3533H16.4976C16.6411 2.3533 16.6698 2.55223 16.6821 2.63976C16.7029 2.82137 16.7118 3.00409 16.7087 3.1868C16.6928 4.09195 16.6279 4.99567 16.514 5.89418C16.2886 7.6129 16.1288 7.6129 16.0263 7.6129L9.12287 8.1878L9.11262 8.19774ZM13.1576 2.55024C12.3697 2.5748 11.6124 2.85232 11.0043 3.33935C10.3962 3.82637 9.97161 4.4954 9.79703 5.2417L9.24786 7.98887L16.0099 7.42591C16.2825 7.07381 16.6616 2.99583 16.4649 2.55024H13.1576Z" fill="#454545"/>
<path d="M23.1574 7.52338H16.0244L16.4875 2.45276H23.1574V7.52338Z" fill="url(#paint41_linear_24_1827)"/>
<path d="M23.1571 7.61288H16.0262C16.012 7.61274 15.998 7.60985 15.985 7.60438C15.9719 7.59892 15.9602 7.59099 15.9504 7.58105C15.9412 7.5707 15.9344 7.55867 15.9301 7.54568C15.9259 7.53269 15.9244 7.51901 15.9258 7.50546L16.3868 2.44081C16.3889 2.41636 16.4004 2.39357 16.419 2.37697C16.4376 2.36038 16.462 2.35121 16.4872 2.35129H23.1571C23.1839 2.35181 23.2095 2.36252 23.2282 2.38111C23.247 2.39971 23.2575 2.42471 23.2575 2.45075V7.52137C23.2559 7.54618 23.2447 7.56946 23.226 7.58647C23.2074 7.60348 23.1827 7.61292 23.1571 7.61288ZM16.1348 7.41395H23.0546V2.54027H16.5794L16.1348 7.41395Z" fill="#454545"/>
<path d="M30.2902 2.45276H23.1572V7.52338H30.2902V2.45276Z" fill="url(#paint42_linear_24_1827)"/>
<path d="M30.2901 7.6129H23.1571C23.1438 7.61317 23.1305 7.61084 23.1181 7.60606C23.1057 7.60128 23.0944 7.59414 23.0848 7.58507C23.0753 7.57599 23.0677 7.56515 23.0625 7.55319C23.0573 7.54124 23.0547 7.5284 23.0547 7.51543V2.45276C23.0547 2.42639 23.0655 2.40109 23.0847 2.38244C23.1039 2.36378 23.13 2.3533 23.1571 2.3533H30.2901C30.3169 2.35382 30.3425 2.36453 30.3612 2.38313C30.38 2.40172 30.3905 2.42673 30.3905 2.45276V7.52338C30.3885 7.54783 30.377 7.57063 30.3584 7.58722C30.3398 7.60381 30.3154 7.61298 30.2901 7.6129ZM23.2576 7.41397H30.1897V2.54029H23.2576V7.41397Z" fill="#454545"/>
<path d="M37.3576 2.45276H30.2246V7.52338H37.3576V2.45276Z" fill="url(#paint43_linear_24_1827)"/>
<path d="M37.3554 7.6129H30.2245C30.2112 7.61317 30.1979 7.61084 30.1855 7.60606C30.1731 7.60128 30.1617 7.59414 30.1522 7.58507C30.1427 7.57599 30.1351 7.56515 30.1299 7.55319C30.1247 7.54124 30.1221 7.5284 30.1221 7.51543V2.45276C30.1221 2.42639 30.1329 2.40109 30.1521 2.38244C30.1713 2.36378 30.1974 2.3533 30.2245 2.3533H37.3554C37.3825 2.35381 37.4082 2.36446 37.4273 2.383C37.4464 2.40154 37.4574 2.42655 37.4579 2.45276V7.52338C37.4554 7.548 37.4435 7.57081 37.4245 7.58737C37.4056 7.60392 37.3809 7.61302 37.3554 7.6129ZM30.3249 7.41397H37.255V2.54029H30.3249V7.41397Z" fill="#454545"/>
<path d="M44.4904 2.45276H37.3574V7.52338H44.4904V2.45276Z" fill="url(#paint44_linear_24_1827)"/>
<path d="M44.4888 7.6129H37.3558C37.3291 7.6129 37.3036 7.60263 37.2848 7.58435C37.266 7.56607 37.2554 7.54128 37.2554 7.51543V2.45276C37.2554 2.42673 37.2659 2.40172 37.2846 2.38313C37.3034 2.36453 37.329 2.35382 37.3558 2.3533H44.4888C44.5159 2.3533 44.542 2.36378 44.5612 2.38244C44.5804 2.40109 44.5912 2.42639 44.5912 2.45276V7.52338C44.5891 7.54818 44.5773 7.57126 44.5583 7.58791C44.5393 7.60455 44.5144 7.61349 44.4888 7.6129ZM37.4582 7.41397H44.3883V2.54029H37.4582V7.41397Z" fill="#454545"/>
<path d="M51.6237 2.45276H44.4907V7.52338H51.6237V2.45276Z" fill="url(#paint45_linear_24_1827)"/>
<path d="M51.6216 7.6129H44.4886C44.462 7.6129 44.4364 7.60263 44.4176 7.58435C44.3988 7.56607 44.3882 7.54128 44.3882 7.51543V2.45276C44.3882 2.42673 44.3987 2.40172 44.4175 2.38313C44.4362 2.36453 44.4618 2.35382 44.4886 2.3533H51.6216C51.6487 2.3533 51.6748 2.36378 51.694 2.38244C51.7132 2.40109 51.724 2.42639 51.724 2.45276V7.52338C51.7219 7.54818 51.7102 7.57126 51.6911 7.58791C51.6721 7.60455 51.6472 7.61349 51.6216 7.6129ZM44.591 7.41397H51.5212V2.54029H44.591V7.41397Z" fill="#454545"/>
<path d="M61.8814 2.45276H51.6235V7.52338H61.8814V2.45276Z" fill="url(#paint46_linear_24_1827)"/>
<path d="M61.8793 7.6129H51.6337C51.6203 7.61317 51.6071 7.61084 51.5947 7.60606C51.5822 7.60128 51.5709 7.59414 51.5614 7.58507C51.5518 7.57599 51.5443 7.56515 51.5391 7.55319C51.5339 7.54124 51.5312 7.5284 51.5313 7.51543V2.45276C51.5313 2.42639 51.542 2.40109 51.5613 2.38244C51.5805 2.36378 51.6065 2.3533 51.6337 2.3533H61.8793C61.9065 2.3533 61.9325 2.36378 61.9517 2.38244C61.971 2.40109 61.9817 2.42639 61.9817 2.45276V7.52338C61.9797 7.54818 61.9679 7.57126 61.9488 7.58791C61.9298 7.60455 61.9049 7.61349 61.8793 7.6129ZM51.7239 7.41397H61.7789V2.54029H51.7239V7.41397Z" fill="#454545"/>
<path d="M14.9032 7.52338L14.311 7.5751L14.7291 2.54825H15.3294L14.9032 7.52338Z" fill="url(#paint47_linear_24_1827)"/>
<path d="M9.35624 3.0535L7.90137 10.5152H8.23947L8.59602 8.65923C8.62471 8.52396 9.60623 4.04216 9.64312 3.80146C9.66971 3.58916 9.61018 3.37514 9.47714 3.20468L9.35624 3.0535Z" fill="url(#paint48_linear_24_1827)"/>
<path d="M9.33584 3.28427C9.42776 3.40495 9.46946 3.55482 9.45264 3.70401C9.41781 3.94073 8.12481 9.91845 8.12481 9.91845H8.01416L9.33584 3.28427Z" fill="url(#paint49_linear_24_1827)"/>
<path d="M6.40784 7.06981C6.40569 7.21422 6.34522 7.35204 6.23945 7.45361C6.13368 7.55518 5.99106 7.61237 5.84228 7.61288C5.70885 7.61257 5.57977 7.56681 5.47754 7.48357C5.47754 7.12949 5.50623 5.69324 5.50623 5.33716C5.617 5.31721 5.7297 5.3092 5.84228 5.31329C6.15375 5.31329 6.40784 5.32722 6.40784 5.63158V7.06981Z" fill="url(#paint50_linear_24_1827)"/>
<path d="M12.543 9.31769C12.5254 9.34701 12.5166 9.38055 12.5177 9.41448C12.5187 9.44841 12.5296 9.48135 12.5491 9.50956C12.5685 9.53778 12.5957 9.56011 12.6276 9.57402C12.6595 9.58793 12.6948 9.59285 12.7294 9.58823H13.7048C13.7817 9.59092 13.8565 9.56398 13.9129 9.51329C13.9694 9.46259 14.0028 9.39228 14.006 9.31769V9.04517H12.6618L12.543 9.31769Z" fill="url(#paint51_linear_24_1827)"/>
<path d="M13.6945 9.61407H12.7191C12.6798 9.61649 12.6405 9.60939 12.6048 9.59342C12.569 9.57745 12.5379 9.5531 12.5142 9.52257C12.4959 9.48991 12.4863 9.45332 12.4863 9.41614C12.4863 9.37896 12.4959 9.34238 12.5142 9.30972L12.6392 9.02127H14.0265V9.31767C14.0249 9.35835 14.015 9.39832 13.9974 9.43528C13.9799 9.47223 13.9549 9.50545 13.9241 9.533C13.8932 9.56056 13.857 9.58191 13.8176 9.59582C13.7782 9.60974 13.7364 9.61594 13.6945 9.61407ZM12.6699 9.071L12.5572 9.32762C12.5412 9.35326 12.5331 9.38282 12.5338 9.4128C12.5345 9.44279 12.544 9.47194 12.5613 9.49683C12.5785 9.52172 12.6027 9.54131 12.6311 9.55327C12.6594 9.56524 12.6907 9.56907 12.7212 9.56434H13.6965C13.7667 9.56652 13.835 9.54191 13.8867 9.4958C13.9384 9.44969 13.9695 9.38574 13.9732 9.31767V9.071H12.6699Z" fill="#E0E0E0"/>
<path d="M13.8769 9.31371C13.8781 9.32574 13.8767 9.33786 13.873 9.34938C13.8693 9.3609 13.8633 9.3716 13.8553 9.38084C13.8472 9.39009 13.8374 9.39771 13.8264 9.40326C13.8154 9.4088 13.8033 9.41217 13.7909 9.41317H12.7171C12.6925 9.41114 12.6697 9.39979 12.6536 9.38155C12.6375 9.36332 12.6294 9.33966 12.6311 9.3157C12.6294 9.29174 12.6375 9.26809 12.6536 9.24985C12.6697 9.23162 12.6925 9.22026 12.7171 9.21823H13.7888C13.8011 9.21873 13.8132 9.22162 13.8243 9.22672C13.8355 9.23183 13.8454 9.23904 13.8536 9.24794C13.8618 9.25683 13.8681 9.26724 13.8721 9.27854C13.8761 9.28983 13.8778 9.30179 13.8769 9.31371Z" fill="url(#paint52_linear_24_1827)"/>
<path d="M13.7721 9.3177C13.7706 9.32792 13.766 9.33749 13.7589 9.34525C13.7519 9.353 13.7427 9.35862 13.7324 9.36142C13.7222 9.36422 13.7113 9.36409 13.7011 9.36104C13.6909 9.35799 13.6819 9.35216 13.675 9.34423C13.6682 9.33631 13.6639 9.32663 13.6625 9.31637C13.6612 9.30611 13.663 9.2957 13.6676 9.28638C13.6722 9.27707 13.6795 9.26925 13.6886 9.26387C13.6977 9.25848 13.7082 9.25576 13.7189 9.25603C13.7343 9.25754 13.7485 9.26484 13.7584 9.27635C13.7684 9.28787 13.7733 9.30271 13.7721 9.3177Z" fill="url(#paint53_radial_24_1827)"/>
</g>
<defs>
<linearGradient id="paint0_linear_24_1827" x1="6.1167" y1="6.38155" x2="7.047" y2="6.38155" gradientUnits="userSpaceOnUse">
<stop stop-color="#5F5A5E"/>
<stop offset="0.28" stop-color="#262529"/>
<stop offset="0.48" stop-color="#29282C"/>
<stop offset="0.63" stop-color="#333135"/>
<stop offset="0.76" stop-color="#434144"/>
<stop offset="0.81" stop-color="#4A484B"/>
</linearGradient>
<radialGradient id="paint1_radial_24_1827" cx="0" cy="0" r="1" gradientUnits="userSpaceOnUse" gradientTransform="translate(32.8398 41.648) scale(32.4067 0.587069)">
<stop stop-color="#949494"/>
<stop offset="0.14" stop-color="#ACACAC"/>
<stop offset="0.39" stop-color="#D0D0D0"/>
<stop offset="0.63" stop-color="#EAEAEA"/>
<stop offset="0.83" stop-color="#F9F9F9"/>
<stop offset="1" stop-color="white"/>
</radialGradient>
<radialGradient id="paint2_radial_24_1827" cx="0" cy="0" r="1" gradientUnits="userSpaceOnUse" gradientTransform="translate(18.3747 42.5695) scale(3.55932 0.587407)">
<stop stop-color="#545454"/>
<stop offset="0.16" stop-color="#7D7D7D"/>
<stop offset="0.35" stop-color="#ABABAB"/>
<stop offset="0.54" stop-color="#D0D0D0"/>
<stop offset="0.72" stop-color="#EAEAEA"/>
<stop offset="0.88" stop-color="#F9F9F9"/>
<stop offset="1" stop-color="white"/>
</radialGradient>
<radialGradient id="paint3_radial_24_1827" cx="0" cy="0" r="1" gradientUnits="userSpaceOnUse" gradientTransform="translate(48.9312 42.5695) scale(3.55931 0.587408)">
<stop stop-color="#545454"/>
<stop offset="0.16" stop-color="#7D7D7D"/>
<stop offset="0.35" stop-color="#ABABAB"/>
<stop offset="0.54" stop-color="#D0D0D0"/>
<stop offset="0.72" stop-color="#EAEAEA"/>
<stop offset="0.88" stop-color="#F9F9F9"/>
<stop offset="1" stop-color="white"/>
</radialGradient>
<radialGradient id="paint4_radial_24_1827" cx="0" cy="0" r="1" gradientUnits="userSpaceOnUse" gradientTransform="translate(54.7668 42.5695) scale(3.55932 0.587408)">
<stop stop-color="#545454"/>
<stop offset="0.16" stop-color="#7D7D7D"/>
<stop offset="0.35" stop-color="#ABABAB"/>
<stop offset="0.54" stop-color="#D0D0D0"/>
<stop offset="0.72" stop-color="#EAEAEA"/>
<stop offset="0.88" stop-color="#F9F9F9"/>
<stop offset="1" stop-color="white"/>
</radialGradient>
<linearGradient id="paint5_linear_24_1827" x1="41.2962" y1="1.08813" x2="41.2962" y2="17.1434" gradientUnits="userSpaceOnUse">
<stop stop-color="white"/>
<stop offset="0.03" stop-color="#FAFAFA"/>
<stop offset="0.09" stop-color="#F2F2F2"/>
<stop offset="0.26" stop-color="#FBFBFB"/>
<stop offset="0.48" stop-color="white"/>
<stop offset="0.71" stop-color="#FDFDFD"/>
<stop offset="0.8" stop-color="#F6F6F6"/>
<stop offset="0.82" stop-color="#F2F2F2"/>
<stop offset="0.86" stop-color="#EAEAEA"/>
<stop offset="0.93" stop-color="#D3D3D3"/>
<stop offset="1" stop-color="#B5B5B5"/>
</linearGradient>
<linearGradient id="paint6_linear_24_1827" x1="14.4484" y1="2.75113" x2="14.4484" y2="4.0163" gradientUnits="userSpaceOnUse">
<stop stop-color="white"/>
<stop offset="1" stop-color="#E6E6E6"/>
</linearGradient>
<linearGradient id="paint7_linear_24_1827" x1="13.836" y1="0.976711" x2="13.836" y2="17.1176" gradientUnits="userSpaceOnUse">
<stop stop-color="white"/>
<stop offset="0.03" stop-color="#FAFAFA"/>
<stop offset="0.09" stop-color="#F2F2F2"/>
<stop offset="0.26" stop-color="#FBFBFB"/>
<stop offset="0.48" stop-color="white"/>
<stop offset="0.71" stop-color="#FDFDFD"/>
<stop offset="0.8" stop-color="#F6F6F6"/>
<stop offset="0.82" stop-color="#F2F2F2"/>
<stop offset="0.86" stop-color="#EAEAEA"/>
<stop offset="0.93" stop-color="#D3D3D3"/>
<stop offset="1" stop-color="#B5B5B5"/>
</linearGradient>
<linearGradient id="paint8_linear_24_1827" x1="23.4771" y1="15.4744" x2="23.6266" y2="15.4744" gradientUnits="userSpaceOnUse">
<stop stop-color="#808080"/>
<stop offset="0.01" stop-color="#898989"/>
<stop offset="0.07" stop-color="#A8A8A8"/>
<stop offset="0.14" stop-color="#C4C4C4"/>
<stop offset="0.22" stop-color="#DADADA"/>
<stop offset="0.31" stop-color="#EBEBEB"/>
<stop offset="0.42" stop-color="#F6F6F6"/>
<stop offset="0.57" stop-color="#FDFDFD"/>
<stop offset="1" stop-color="white"/>
</linearGradient>
<linearGradient id="paint9_linear_24_1827" x1="26.8989" y1="15.4744" x2="27.0485" y2="15.4744" gradientUnits="userSpaceOnUse">
<stop stop-color="#808080"/>
<stop offset="0.01" stop-color="#898989"/>
<stop offset="0.07" stop-color="#A8A8A8"/>
<stop offset="0.14" stop-color="#C4C4C4"/>
<stop offset="0.22" stop-color="#DADADA"/>
<stop offset="0.31" stop-color="#EBEBEB"/>
<stop offset="0.42" stop-color="#F6F6F6"/>
<stop offset="0.57" stop-color="#FDFDFD"/>
<stop offset="1" stop-color="white"/>
</linearGradient>
<linearGradient id="paint10_linear_24_1827" x1="36.7778" y1="15.4744" x2="36.9254" y2="15.4744" gradientUnits="userSpaceOnUse">
<stop stop-color="#808080"/>
<stop offset="0.01" stop-color="#898989"/>
<stop offset="0.07" stop-color="#A8A8A8"/>
<stop offset="0.14" stop-color="#C4C4C4"/>
<stop offset="0.22" stop-color="#DADADA"/>
<stop offset="0.31" stop-color="#EBEBEB"/>
<stop offset="0.42" stop-color="#F6F6F6"/>
<stop offset="0.57" stop-color="#FDFDFD"/>
<stop offset="1" stop-color="white"/>
</linearGradient>
<linearGradient id="paint11_linear_24_1827" x1="40.1997" y1="15.4744" x2="40.3493" y2="15.4744" gradientUnits="userSpaceOnUse">
<stop stop-color="#808080"/>
<stop offset="0.01" stop-color="#898989"/>
<stop offset="0.07" stop-color="#A8A8A8"/>
<stop offset="0.14" stop-color="#C4C4C4"/>
<stop offset="0.22" stop-color="#DADADA"/>
<stop offset="0.31" stop-color="#EBEBEB"/>
<stop offset="0.42" stop-color="#F6F6F6"/>
<stop offset="0.57" stop-color="#FDFDFD"/>
<stop offset="1" stop-color="white"/>
</linearGradient>
<linearGradient id="paint12_linear_24_1827" x1="32.6631" y1="14.9811" x2="32.6631" y2="15.6992" gradientUnits="userSpaceOnUse">
<stop stop-color="#B5B5B5"/>
<stop offset="0.06" stop-color="#C2C2C2"/>
<stop offset="0.18" stop-color="#E6E6E6"/>
<stop offset="0.21" stop-color="#F2F2F2"/>
<stop offset="0.53" stop-color="#E8E8E8"/>
<stop offset="0.76" stop-color="#DEDEDE"/>
<stop offset="0.83" stop-color="#E9E9E9"/>
<stop offset="0.92" stop-color="white"/>
<stop offset="1" stop-color="white"/>
</linearGradient>
<linearGradient id="paint13_linear_24_1827" x1="59.2465" y1="14.7344" x2="59.2465" y2="16.0036" gradientUnits="userSpaceOnUse">
<stop stop-color="#5F5A5E"/>
<stop offset="0.28" stop-color="#262529"/>
<stop offset="0.48" stop-color="#29282C"/>
<stop offset="0.63" stop-color="#333135"/>
<stop offset="0.76" stop-color="#434144"/>
<stop offset="0.81" stop-color="#4A484B"/>
</linearGradient>
<linearGradient id="paint14_linear_24_1827" x1="38.5769" y1="16.0891" x2="38.5769" y2="16.3776" gradientUnits="userSpaceOnUse">
<stop stop-color="#5F5A5E"/>
<stop offset="0.28" stop-color="#262529"/>
<stop offset="0.48" stop-color="#29282C"/>
<stop offset="0.63" stop-color="#333135"/>
<stop offset="0.76" stop-color="#434144"/>
<stop offset="0.81" stop-color="#4A484B"/>
</linearGradient>
<linearGradient id="paint15_linear_24_1827" x1="25.1635" y1="16.0891" x2="25.1635" y2="16.3776" gradientUnits="userSpaceOnUse">
<stop stop-color="#5F5A5E"/>
<stop offset="0.28" stop-color="#262529"/>
<stop offset="0.48" stop-color="#29282C"/>
<stop offset="0.63" stop-color="#333135"/>
<stop offset="0.76" stop-color="#434144"/>
<stop offset="0.81" stop-color="#4A484B"/>
</linearGradient>
<linearGradient id="paint16_linear_24_1827" x1="15.8458" y1="13.8293" x2="15.5613" y2="13.7142" gradientUnits="userSpaceOnUse">
<stop offset="0.01" stop-color="#FF8000"/>
<stop offset="0.1" stop-color="#FF8600"/>
<stop offset="0.21" stop-color="#FF9600"/>
<stop offset="0.34" stop-color="#FFB100"/>
<stop offset="0.44" stop-color="#FFCC00"/>
<stop offset="0.79" stop-color="#FFA400"/>
<stop offset="1" stop-color="#FF8900"/>
</linearGradient>
<linearGradient id="paint17_linear_24_1827" x1="59.0986" y1="15.2496" x2="58.8162" y2="15.1345" gradientUnits="userSpaceOnUse">
<stop offset="0.01" stop-color="#FF8000"/>
<stop offset="0.1" stop-color="#FF8600"/>
<stop offset="0.21" stop-color="#FF9600"/>
<stop offset="0.34" stop-color="#FFB100"/>
<stop offset="0.44" stop-color="#FFCC00"/>
<stop offset="0.79" stop-color="#FFA400"/>
<stop offset="1" stop-color="#FF8900"/>
</linearGradient>
<linearGradient id="paint18_linear_24_1827" x1="11.707" y1="15.2914" x2="11.707" y2="16.6322" gradientUnits="userSpaceOnUse">
<stop stop-color="#B8B8B8"/>
<stop offset="0.01" stop-color="#BCBCBC"/>
<stop offset="0.05" stop-color="#D0D0D0"/>
<stop offset="0.11" stop-color="#DEDEDE"/>
<stop offset="0.17" stop-color="#E7E7E7"/>
<stop offset="0.28" stop-color="#E9E9E9"/>
<stop offset="0.65" stop-color="white"/>
<stop offset="0.76" stop-color="#E5E5E5"/>
<stop offset="1" stop-color="#A3A3A3"/>
</linearGradient>
<linearGradient id="paint19_linear_24_1827" x1="11.709" y1="16.487" x2="11.709" y2="16.6203" gradientUnits="userSpaceOnUse">
<stop stop-color="#5F5A5E"/>
<stop offset="0.28" stop-color="#262529"/>
<stop offset="0.48" stop-color="#29282C"/>
<stop offset="0.63" stop-color="#333135"/>
<stop offset="0.76" stop-color="#434144"/>
<stop offset="0.81" stop-color="#4A484B"/>
</linearGradient>
<linearGradient id="paint20_linear_24_1827" x1="7.90137" y1="15.6813" x2="8.63495" y2="15.6813" gradientUnits="userSpaceOnUse">
<stop stop-color="white"/>
<stop offset="0.06" stop-color="#EAEAEA"/>
<stop offset="0.24" stop-color="#B0B0B0"/>
<stop offset="0.42" stop-color="#808080"/>
<stop offset="0.59" stop-color="#5A5A5A"/>
<stop offset="0.75" stop-color="#3F3F3F"/>
<stop offset="0.88" stop-color="#2F2F2F"/>
<stop offset="0.99" stop-color="#292929"/>
</linearGradient>
<linearGradient id="paint21_linear_24_1827" x1="7.90381" y1="15.6813" x2="8.60666" y2="15.6813" gradientUnits="userSpaceOnUse">
<stop offset="0.01" stop-color="#757575"/>
<stop offset="0.19" stop-color="#787878"/>
<stop offset="0.23" stop-color="#7F7F7F"/>
<stop offset="0.35" stop-color="#8E8E8E"/>
<stop offset="0.4" stop-color="#989898"/>
<stop offset="0.54" stop-color="#B2B2B2"/>
<stop offset="0.69" stop-color="#C5C5C5"/>
<stop offset="0.84" stop-color="#D0D0D0"/>
<stop offset="1" stop-color="#D4D4D4"/>
</linearGradient>
<linearGradient id="paint22_linear_24_1827" x1="7.90137" y1="15.7012" x2="8.25382" y2="15.7012" gradientUnits="userSpaceOnUse">
<stop offset="0.01" stop-color="#757575"/>
<stop offset="0.19" stop-color="#787878"/>
<stop offset="0.23" stop-color="#7F7F7F"/>
<stop offset="0.35" stop-color="#8E8E8E"/>
<stop offset="0.4" stop-color="#989898"/>
<stop offset="0.54" stop-color="#B2B2B2"/>
<stop offset="0.69" stop-color="#C5C5C5"/>
<stop offset="0.84" stop-color="#D0D0D0"/>
<stop offset="1" stop-color="#D4D4D4"/>
</linearGradient>
<radialGradient id="paint23_radial_24_1827" cx="0" cy="0" r="1" gradientUnits="userSpaceOnUse" gradientTransform="translate(48.9331 17.0519) scale(2.39337 2.32345)">
<stop offset="0.7" stop-color="#504E51"/>
<stop offset="0.77" stop-color="#494749"/>
<stop offset="0.88" stop-color="#343334"/>
<stop offset="1" stop-color="#141414"/>
</radialGradient>
<radialGradient id="paint24_radial_24_1827" cx="0" cy="0" r="1" gradientUnits="userSpaceOnUse" gradientTransform="translate(48.9312 17.0519) scale(1.3975 1.35668)">
<stop stop-color="white"/>
<stop offset="0.1" stop-color="#DCDCDC"/>
<stop offset="0.19" stop-color="#C5C5C5"/>
<stop offset="0.25" stop-color="#BDBDBD"/>
<stop offset="0.28" stop-color="#C9C9C9"/>
<stop offset="0.37" stop-color="#DFDFDF"/>
<stop offset="0.45" stop-color="#ECECEC"/>
<stop offset="0.52" stop-color="#F0F0F0"/>
<stop offset="0.68" stop-color="#F0F0F0"/>
<stop offset="0.7" stop-color="#F0F0F0"/>
<stop offset="0.85" stop-color="#EEEEEE"/>
<stop offset="0.9" stop-color="#E7E7E7"/>
<stop offset="0.93" stop-color="#DCDCDC"/>
<stop offset="0.96" stop-color="#CBCBCB"/>
<stop offset="0.99" stop-color="#B5B5B5"/>
<stop offset="1" stop-color="#A8A8A8"/>
</radialGradient>
<linearGradient id="paint25_linear_24_1827" x1="48.0849" y1="16.0235" x2="49.7503" y2="18.1683" gradientUnits="userSpaceOnUse">
<stop stop-color="white"/>
<stop offset="0.11" stop-color="#FDFDFD"/>
<stop offset="0.16" stop-color="#F6F6F6"/>
<stop offset="0.19" stop-color="#EAEAEA"/>
<stop offset="0.22" stop-color="#D9D9D9"/>
<stop offset="0.24" stop-color="#C2C2C2"/>
<stop offset="0.25" stop-color="#C1C1C1"/>
<stop offset="0.27" stop-color="#D8D8D8"/>
<stop offset="0.3" stop-color="#E9E9E9"/>
<stop offset="0.34" stop-color="#F6F6F6"/>
<stop offset="0.38" stop-color="#FDFDFD"/>
<stop offset="0.49" stop-color="white"/>
<stop offset="0.93" stop-color="white"/>
<stop offset="1" stop-color="white"/>
</linearGradient>
<radialGradient id="paint26_radial_24_1827" cx="0" cy="0" r="1" gradientUnits="userSpaceOnUse" gradientTransform="translate(54.767 17.0519) scale(2.39337 2.32345)">
<stop offset="0.7" stop-color="#504E51"/>
<stop offset="0.77" stop-color="#494749"/>
<stop offset="0.88" stop-color="#343334"/>
<stop offset="1" stop-color="#141414"/>
</radialGradient>
<radialGradient id="paint27_radial_24_1827" cx="0" cy="0" r="1" gradientUnits="userSpaceOnUse" gradientTransform="translate(54.7671 17.0519) scale(1.3975 1.35667)">
<stop stop-color="white"/>
<stop offset="0.1" stop-color="#DCDCDC"/>
<stop offset="0.19" stop-color="#C5C5C5"/>
<stop offset="0.25" stop-color="#BDBDBD"/>
<stop offset="0.28" stop-color="#C9C9C9"/>
<stop offset="0.37" stop-color="#DFDFDF"/>
<stop offset="0.45" stop-color="#ECECEC"/>
<stop offset="0.52" stop-color="#F0F0F0"/>
<stop offset="0.68" stop-color="#F0F0F0"/>
<stop offset="0.7" stop-color="#F0F0F0"/>
<stop offset="0.85" stop-color="#EEEEEE"/>
<stop offset="0.9" stop-color="#E7E7E7"/>
<stop offset="0.93" stop-color="#DCDCDC"/>
<stop offset="0.96" stop-color="#CBCBCB"/>
<stop offset="0.99" stop-color="#B5B5B5"/>
<stop offset="1" stop-color="#A8A8A8"/>
</radialGradient>
<linearGradient id="paint28_linear_24_1827" x1="53.9208" y1="16.0235" x2="55.5862" y2="18.1683" gradientUnits="userSpaceOnUse">
<stop stop-color="white"/>
<stop offset="0.11" stop-color="#FDFDFD"/>
<stop offset="0.16" stop-color="#F6F6F6"/>
<stop offset="0.19" stop-color="#EAEAEA"/>
<stop offset="0.22" stop-color="#D9D9D9"/>
<stop offset="0.24" stop-color="#C2C2C2"/>
<stop offset="0.25" stop-color="#C1C1C1"/>
<stop offset="0.27" stop-color="#D8D8D8"/>
<stop offset="0.3" stop-color="#E9E9E9"/>
<stop offset="0.34" stop-color="#F6F6F6"/>
<stop offset="0.38" stop-color="#FDFDFD"/>
<stop offset="0.49" stop-color="white"/>
<stop offset="0.93" stop-color="white"/>
<stop offset="1" stop-color="white"/>
</linearGradient>
<radialGradient id="paint29_radial_24_1827" cx="0" cy="0" r="1" gradientUnits="userSpaceOnUse" gradientTransform="translate(18.4937 17.0519) scale(2.39337 2.32345)">
<stop offset="0.7" stop-color="#504E51"/>
<stop offset="0.77" stop-color="#494749"/>
<stop offset="0.88" stop-color="#343334"/>
<stop offset="1" stop-color="#141414"/>
</radialGradient>
<radialGradient id="paint30_radial_24_1827" cx="0" cy="0" r="1" gradientUnits="userSpaceOnUse" gradientTransform="translate(18.4937 17.0519) scale(1.3975 1.35667)">
<stop stop-color="white"/>
<stop offset="0.1" stop-color="#DCDCDC"/>
<stop offset="0.19" stop-color="#C5C5C5"/>
<stop offset="0.25" stop-color="#BDBDBD"/>
<stop offset="0.28" stop-color="#C9C9C9"/>
<stop offset="0.37" stop-color="#DFDFDF"/>
<stop offset="0.45" stop-color="#ECECEC"/>
<stop offset="0.52" stop-color="#F0F0F0"/>
<stop offset="0.68" stop-color="#F0F0F0"/>
<stop offset="0.7" stop-color="#F0F0F0"/>
<stop offset="0.85" stop-color="#EEEEEE"/>
<stop offset="0.9" stop-color="#E7E7E7"/>
<stop offset="0.93" stop-color="#DCDCDC"/>
<stop offset="0.96" stop-color="#CBCBCB"/>
<stop offset="0.99" stop-color="#B5B5B5"/>
<stop offset="1" stop-color="#A8A8A8"/>
</radialGradient>
<linearGradient id="paint31_linear_24_1827" x1="17.6453" y1="16.0235" x2="19.3127" y2="18.1684" gradientUnits="userSpaceOnUse">
<stop stop-color="white"/>
<stop offset="0.11" stop-color="#FDFDFD"/>
<stop offset="0.16" stop-color="#F6F6F6"/>
<stop offset="0.19" stop-color="#EAEAEA"/>
<stop offset="0.22" stop-color="#D9D9D9"/>
<stop offset="0.24" stop-color="#C2C2C2"/>
<stop offset="0.25" stop-color="#C1C1C1"/>
<stop offset="0.27" stop-color="#D8D8D8"/>
<stop offset="0.3" stop-color="#E9E9E9"/>
<stop offset="0.34" stop-color="#F6F6F6"/>
<stop offset="0.38" stop-color="#FDFDFD"/>
<stop offset="0.49" stop-color="white"/>
<stop offset="0.93" stop-color="white"/>
<stop offset="1" stop-color="white"/>
</linearGradient>
<linearGradient id="paint32_linear_24_1827" x1="36.194" y1="0" x2="36.194" y2="1.0921" gradientUnits="userSpaceOnUse">
<stop stop-color="#5F5A5E"/>
<stop offset="0.28" stop-color="#262529"/>
<stop offset="0.48" stop-color="#29282C"/>
<stop offset="0.63" stop-color="#333135"/>
<stop offset="0.76" stop-color="#434144"/>
<stop offset="0.81" stop-color="#4A484B"/>
</linearGradient>
<linearGradient id="paint33_linear_24_1827" x1="50.7856" y1="0.742004" x2="50.7856" y2="1.08814" gradientUnits="userSpaceOnUse">
<stop stop-color="#5F5A5E"/>
<stop offset="0.28" stop-color="#262529"/>
<stop offset="0.48" stop-color="#29282C"/>
<stop offset="0.63" stop-color="#333135"/>
<stop offset="0.76" stop-color="#434144"/>
<stop offset="0.81" stop-color="#4A484B"/>
</linearGradient>
<linearGradient id="paint34_linear_24_1827" x1="22.7025" y1="0.742004" x2="22.7025" y2="1.08814" gradientUnits="userSpaceOnUse">
<stop stop-color="#5F5A5E"/>
<stop offset="0.28" stop-color="#262529"/>
<stop offset="0.48" stop-color="#29282C"/>
<stop offset="0.63" stop-color="#333135"/>
<stop offset="0.76" stop-color="#434144"/>
<stop offset="0.81" stop-color="#4A484B"/>
</linearGradient>
<linearGradient id="paint35_linear_24_1827" x1="38.1834" y1="13.0117" x2="38.1834" y2="13.4255" gradientUnits="userSpaceOnUse">
<stop stop-color="#B5B5B5"/>
<stop offset="0.06" stop-color="#C2C2C2"/>
<stop offset="0.18" stop-color="#E6E6E6"/>
<stop offset="0.21" stop-color="#F2F2F2"/>
<stop offset="0.53" stop-color="#E8E8E8"/>
<stop offset="0.76" stop-color="#DEDEDE"/>
<stop offset="0.83" stop-color="#E9E9E9"/>
<stop offset="0.92" stop-color="white"/>
<stop offset="1" stop-color="white"/>
</linearGradient>
<linearGradient id="paint36_linear_24_1827" x1="61.2441" y1="14.2152" x2="62.8486" y2="14.2152" gradientUnits="userSpaceOnUse">
<stop stop-color="#DB2A24"/>
<stop offset="1" stop-color="#FF6963"/>
</linearGradient>
<linearGradient id="paint37_linear_24_1827" x1="61.4162" y1="14.2351" x2="62.8485" y2="14.2351" gradientUnits="userSpaceOnUse">
<stop stop-color="#AB0700"/>
<stop offset="0.17" stop-color="#7D0500"/>
<stop offset="0.36" stop-color="#500300"/>
<stop offset="0.54" stop-color="#2D0200"/>
<stop offset="0.72" stop-color="#140100"/>
<stop offset="0.87" stop-color="#050000"/>
<stop offset="1"/>
</linearGradient>
<linearGradient id="paint38_linear_24_1827" x1="62.1665" y1="14.2431" x2="62.8489" y2="14.2431" gradientUnits="userSpaceOnUse">
<stop/>
<stop offset="0.1" stop-color="#050202"/>
<stop offset="0.22" stop-color="#140808"/>
<stop offset="0.36" stop-color="#2D1312"/>
<stop offset="0.51" stop-color="#50211F"/>
<stop offset="0.66" stop-color="#7D3431"/>
<stop offset="0.81" stop-color="#B44A46"/>
<stop offset="0.97" stop-color="#F4655F"/>
<stop offset="1" stop-color="#FF6963"/>
</linearGradient>
<linearGradient id="paint39_linear_24_1827" x1="8.24609" y1="8.52" x2="62.0723" y2="8.52" gradientUnits="userSpaceOnUse">
<stop stop-color="#5F5A5E"/>
<stop offset="0.28" stop-color="#262529"/>
<stop offset="0.48" stop-color="#29282C"/>
<stop offset="0.63" stop-color="#333135"/>
<stop offset="0.76" stop-color="#434144"/>
<stop offset="0.81" stop-color="#4A484B"/>
</linearGradient>
<linearGradient id="paint40_linear_24_1827" x1="12.8545" y1="2.51642" x2="12.8545" y2="8.16392" gradientUnits="userSpaceOnUse">
<stop stop-color="#444440"/>
<stop offset="1" stop-color="#080808"/>
</linearGradient>
<linearGradient id="paint41_linear_24_1827" x1="19.5919" y1="2.51045" x2="19.5919" y2="7.58107" gradientUnits="userSpaceOnUse">
<stop stop-color="#41413E"/>
<stop offset="1" stop-color="#090908"/>
</linearGradient>
<linearGradient id="paint42_linear_24_1827" x1="26.7247" y1="2.51045" x2="26.7247" y2="7.58107" gradientUnits="userSpaceOnUse">
<stop stop-color="#41413E"/>
<stop offset="1" stop-color="#090908"/>
</linearGradient>
<linearGradient id="paint43_linear_24_1827" x1="33.7901" y1="2.51045" x2="33.7901" y2="7.58107" gradientUnits="userSpaceOnUse">
<stop stop-color="#42423F"/>
<stop offset="1" stop-color="#0A0A0A"/>
</linearGradient>
<linearGradient id="paint44_linear_24_1827" x1="40.9229" y1="2.51045" x2="40.9229" y2="7.58107" gradientUnits="userSpaceOnUse">
<stop stop-color="#42423F"/>
<stop offset="1" stop-color="#0A0A0A"/>
</linearGradient>
<linearGradient id="paint45_linear_24_1827" x1="48.0562" y1="2.51045" x2="48.0562" y2="7.58107" gradientUnits="userSpaceOnUse">
<stop stop-color="#42423F"/>
<stop offset="1" stop-color="#0A0A0A"/>
</linearGradient>
<linearGradient id="paint46_linear_24_1827" x1="56.7525" y1="2.51045" x2="56.7525" y2="7.58107" gradientUnits="userSpaceOnUse">
<stop stop-color="#444440"/>
<stop offset="1" stop-color="#131312"/>
</linearGradient>
<linearGradient id="paint47_linear_24_1827" x1="14.8192" y1="2.60594" x2="14.8192" y2="7.6308" gradientUnits="userSpaceOnUse">
<stop stop-color="#5F5A5E"/>
<stop offset="0.28" stop-color="#262529"/>
<stop offset="0.48" stop-color="#29282C"/>
<stop offset="0.63" stop-color="#333135"/>
<stop offset="0.76" stop-color="#434144"/>
<stop offset="0.81" stop-color="#4A484B"/>
</linearGradient>
<linearGradient id="paint48_linear_24_1827" x1="7.90137" y1="6.78535" x2="9.65746" y2="6.78535" gradientUnits="userSpaceOnUse">
<stop stop-color="#5F5A5E"/>
<stop offset="0.28" stop-color="#262529"/>
<stop offset="0.48" stop-color="#29282C"/>
<stop offset="0.63" stop-color="#333135"/>
<stop offset="0.76" stop-color="#434144"/>
<stop offset="0.81" stop-color="#4A484B"/>
</linearGradient>
<linearGradient id="paint49_linear_24_1827" x1="8.01416" y1="6.60235" x2="9.45879" y2="6.60235" gradientUnits="userSpaceOnUse">
<stop stop-color="#A3DFFA"/>
<stop offset="1" stop-color="#53B8E6"/>
</linearGradient>
<linearGradient id="paint50_linear_24_1827" x1="5.47754" y1="6.46905" x2="6.40784" y2="6.46905" gradientUnits="userSpaceOnUse">
<stop stop-color="#5F5A5E"/>
<stop offset="0.28" stop-color="#262529"/>
<stop offset="0.48" stop-color="#29282C"/>
<stop offset="0.63" stop-color="#333135"/>
<stop offset="0.76" stop-color="#434144"/>
<stop offset="0.81" stop-color="#4A484B"/>
</linearGradient>
<linearGradient id="paint51_linear_24_1827" x1="13.254" y1="9.04517" x2="13.254" y2="9.58823" gradientUnits="userSpaceOnUse">
<stop offset="0.4" stop-color="#7D7D7D"/>
<stop offset="0.79" stop-color="#F2F2F2"/>
<stop offset="1" stop-color="#A8A8A8"/>
</linearGradient>
<linearGradient id="paint52_linear_24_1827" x1="13.0122" y1="9.3893" x2="13.0122" y2="9.58624" gradientUnits="userSpaceOnUse">
<stop stop-color="#999999"/>
<stop offset="0.26" stop-color="#EBEBEB"/>
<stop offset="0.69" stop-color="#2B2B2B"/>
</linearGradient>
<radialGradient id="paint53_radial_24_1827" cx="0" cy="0" r="1" gradientUnits="userSpaceOnUse" gradientTransform="translate(13.7107 9.28517) scale(0.0553263 0.0628384)">
<stop stop-color="#9E9E9E"/>
<stop offset="0.28" stop-color="#FAFAFA"/>
<stop offset="0.5" stop-color="#F7F7F7"/>
<stop offset="0.66" stop-color="#F4F4F4"/>
<stop offset="0.77" stop-color="#EBEBEB"/>
<stop offset="0.86" stop-color="#DCDCDC"/>
<stop offset="0.94" stop-color="#C7C7C7"/>
<stop offset="1" stop-color="#B3B3B3"/>
</radialGradient>
<clipPath id="clip0_24_1827">
<rect width="66" height="20" fill="white"/>
</clipPath>
</defs>
</svg>
