<svg width="68" height="26" viewBox="0 0 68 26" fill="none" xmlns="http://www.w3.org/2000/svg">
<g clip-path="url(#clip0_24_2147)">
<path d="M49.585 4.30438C49.585 4.30438 50.501 3.13015 51.4972 2.02539C51.9502 1.51596 52.4291 1.0301 52.9322 0.569749C53.0367 0.475949 53.1307 0.392571 53.2213 0.323089C53.3118 0.253608 53.385 0.187601 53.4547 0.145912L53.6671 0L53.4581 0.15286C53.392 0.198023 53.3188 0.26403 53.2317 0.336986C53.1447 0.409942 53.0506 0.493319 52.9531 0.590594C52.4624 1.06355 51.9974 1.5622 51.5599 2.08445C50.5985 3.217 49.7243 4.41208 49.7243 4.41208L49.585 4.30438Z" fill="#28272B"/>
<path style="mix-blend-mode:multiply" d="M54.914 25.069C54.914 25.5831 52.556 26.0035 49.6511 26.0035C46.7462 26.0035 44.3882 25.5831 44.3882 25.069C44.3882 24.5548 46.7427 24.1379 49.6511 24.1379C52.5595 24.1379 54.914 24.5548 54.914 25.069Z" fill="url(#paint0_radial_24_2147)"/>
<path style="mix-blend-mode:multiply" d="M67.9965 22.4391C67.9965 22.9637 52.7755 23.3875 33.9983 23.3875C15.221 23.3875 0 22.9671 0 22.4391C0 21.911 15.221 21.4907 33.9983 21.4907C52.7755 21.4907 67.9965 21.9249 67.9965 22.4391Z" fill="url(#paint1_radial_24_2147)"/>
<path style="mix-blend-mode:multiply" d="M23.3505 25.069C23.3505 25.5831 20.9925 26.0035 18.0876 26.0035C15.1827 26.0035 12.8247 25.5831 12.8247 25.069C12.8247 24.5548 15.1793 24.1379 18.0876 24.1379C20.996 24.1379 23.3505 24.5548 23.3505 25.069Z" fill="url(#paint2_radial_24_2147)"/>
<path style="mix-blend-mode:screen" d="M14.103 18.3709H8.23057C8.23057 18.3709 8.11563 15.0601 15.5764 13.2849C18.8296 12.5102 26.7675 12.7325 26.7675 12.7325H54.1479C54.1479 12.7325 55.9974 17.8255 51.6749 16.5818C51.6749 16.5818 35.7155 20.6604 22.5007 18.4647C14.7126 17.1689 14.103 18.3709 14.103 18.3709Z" fill="url(#paint3_linear_24_2147)"/>
<path d="M54.8338 4.79074C54.8338 4.79074 50.7028 4.14457 44.0362 4.26268C37.6831 4.37385 31.8838 4.61009 28.2196 6.15258C26.0531 7.07321 21.7202 9.71699 19.9787 10.1478C18.2371 10.5786 10.348 11.0719 6.81962 14.2402C5.82346 15.1296 5.61448 17.69 6.79872 18.7565C7.98297 19.8231 5.57965 20.8827 11.9676 20.8827H52.4896L60.2848 20.0732V12.9618L59.8529 10.8078L54.8338 4.79074Z" fill="url(#paint4_linear_24_2147)"/>
<path style="mix-blend-mode:multiply" d="M54.8338 4.79074C54.8338 4.79074 50.7028 4.14457 44.0362 4.26268C37.6831 4.37385 31.8838 4.61009 28.2196 6.15258C26.0531 7.07321 21.7202 9.71699 19.9787 10.1478C18.2371 10.5786 10.348 11.0719 6.81962 14.2402C5.82346 15.1296 5.61448 17.69 6.79872 18.7565C7.98297 19.8231 5.57965 20.8827 11.9676 20.8827H52.4896L60.2848 20.0732V12.9618L59.8529 10.8078L54.8338 4.79074Z" fill="url(#paint5_linear_24_2147)"/>
<path style="mix-blend-mode:multiply" d="M59.8531 10.8079L55.4679 5.55505V9.7031C55.4679 11.0302 55.4261 12.3642 55.5062 13.6913C55.9172 15.9391 56.4467 18.1729 56.6278 20.445L60.285 20.0663V12.9618L59.8531 10.8079Z" fill="url(#paint6_linear_24_2147)"/>
<path d="M13.0613 13.0799L9.18118 12.7325C8.32884 13.1196 7.53698 13.6274 6.83011 14.2402C6.52054 14.5382 6.29475 14.9119 6.17529 15.3241C7.03561 14.935 8.57164 15.1539 9.96139 14.4417C10.9708 13.9355 12.0055 13.481 13.0613 13.0799Z" fill="url(#paint7_linear_24_2147)"/>
<path d="M9.20208 12.9097L12.3368 13.1876C11.7308 13.4342 10.8043 13.8372 9.89869 14.2993C9.15898 14.6367 8.36304 14.8346 7.55111 14.8829C7.19223 14.9144 6.83606 14.9713 6.48529 15.0532C6.5894 14.791 6.74854 14.5541 6.95202 14.3584C7.63533 13.7681 8.39867 13.2769 9.2195 12.8992L9.20208 12.9097ZM9.18118 12.7325C8.32884 13.1196 7.53698 13.6274 6.83011 14.2402C6.52054 14.5382 6.29475 14.9119 6.17529 15.3241C7.03561 14.935 8.57164 15.1539 9.96139 14.4417C10.9703 13.9261 12.0049 13.4622 13.0613 13.0521L9.18118 12.7325Z" fill="url(#paint8_linear_24_2147)"/>
<path style="mix-blend-mode:multiply" d="M14.103 18.3709H8.23057C8.23057 18.3709 8.11563 15.0601 15.5764 13.2849C18.8296 12.5102 26.7675 12.7325 26.7675 12.7325L54.538 12.7047C54.538 12.7047 55.9974 17.8255 51.6749 16.5818C51.6749 16.5818 35.7155 20.6604 22.5007 18.4647C14.7126 17.1689 14.103 18.3709 14.103 18.3709Z" fill="url(#paint9_linear_24_2147)"/>
<path d="M25.5032 7.95215C26.98 7.101 28.6379 6.21511 29.9023 5.54462C29.3078 5.73222 28.7517 5.93487 28.2339 6.15258C26.0535 7.07321 21.7205 9.71698 19.979 10.1478C19.7213 10.2103 19.3242 10.2763 18.8296 10.3527C20.7906 10.4361 23.2531 9.24798 25.5032 7.95215Z" fill="url(#paint10_linear_24_2147)"/>
<path d="M49.9088 15.7619C48.9536 15.7627 48.0184 16.0351 47.2128 16.547C46.4071 17.0589 45.7644 17.7892 45.36 18.6523L44.942 20.042C44.904 20.2891 44.8854 20.5389 44.8863 20.7889H54.9349C54.9358 20.1297 54.8066 19.4767 54.5545 18.8673C54.3024 18.2579 53.9324 17.7039 53.4657 17.2371C52.999 16.7704 52.4447 16.3998 51.8344 16.1467C51.2241 15.8936 50.5698 15.7628 49.9088 15.7619Z" fill="black"/>
<path d="M54.2177 20.775C54.2184 21.6251 53.9663 22.4563 53.4933 23.1635C53.0203 23.8706 52.3476 24.422 51.5604 24.7478C50.7732 25.0736 49.9067 25.1592 49.0707 24.9937C48.2347 24.8283 47.4667 24.4193 46.8638 23.8184C46.2609 23.2176 45.8502 22.4518 45.6836 21.6181C45.5171 20.7844 45.6022 19.9202 45.9282 19.1347C46.2542 18.3492 46.8065 17.6779 47.5151 17.2055C48.2237 16.7331 49.0568 16.481 49.9091 16.481C50.4748 16.4806 51.035 16.5913 51.5577 16.8069C52.0804 17.0225 52.5554 17.3387 52.9555 17.7375C53.3557 18.1362 53.6731 18.6098 53.8897 19.131C54.1062 19.6521 54.2177 20.2108 54.2177 20.775Z" fill="url(#paint11_radial_24_2147)"/>
<path d="M49.9088 23.2798C49.4121 23.2798 48.9265 23.1329 48.5136 22.8577C48.1006 22.5824 47.7787 22.1912 47.5886 21.7335C47.3985 21.2758 47.3488 20.7722 47.4457 20.2863C47.5426 19.8004 47.7818 19.3541 48.133 19.0038C48.4842 18.6535 48.9317 18.415 49.4188 18.3183C49.906 18.2217 50.4109 18.2713 50.8698 18.4608C51.3287 18.6504 51.7209 18.9715 51.9968 19.3834C52.2728 19.7953 52.4201 20.2796 52.4201 20.775C52.4201 21.1039 52.3551 21.4296 52.2289 21.7335C52.1027 22.0374 51.9177 22.3136 51.6845 22.5462C51.4513 22.7787 51.1745 22.9632 50.8698 23.0891C50.5651 23.215 50.2385 23.2798 49.9088 23.2798Z" fill="url(#paint12_radial_24_2147)"/>
<path style="mix-blend-mode:multiply" d="M49.9088 23.2798C49.4121 23.2798 48.9265 23.1329 48.5136 22.8577C48.1006 22.5824 47.7787 22.1912 47.5886 21.7335C47.3985 21.2758 47.3488 20.7722 47.4457 20.2863C47.5426 19.8004 47.7818 19.3541 48.133 19.0038C48.4842 18.6535 48.9317 18.415 49.4188 18.3183C49.906 18.2217 50.4109 18.2713 50.8698 18.4608C51.3287 18.6504 51.7209 18.9715 51.9968 19.3834C52.2728 19.7953 52.4201 20.2796 52.4201 20.775C52.4201 21.1039 52.3551 21.4296 52.2289 21.7335C52.1027 22.0374 51.9177 22.3136 51.6845 22.5462C51.4513 22.7787 51.1745 22.9632 50.8698 23.0891C50.5651 23.215 50.2385 23.2798 49.9088 23.2798Z" fill="url(#paint13_linear_24_2147)"/>
<path d="M49.9089 21.4906C49.767 21.4906 49.6283 21.4487 49.5103 21.37C49.3923 21.2914 49.3003 21.1796 49.246 21.0489C49.1917 20.9181 49.1775 20.7742 49.2052 20.6354C49.2329 20.4965 49.3012 20.369 49.4016 20.2689C49.5019 20.1689 49.6298 20.1007 49.7689 20.0731C49.9081 20.0455 50.0524 20.0596 50.1835 20.1138C50.3146 20.168 50.4267 20.2597 50.5055 20.3774C50.5844 20.4951 50.6264 20.6334 50.6264 20.775C50.6264 20.9648 50.5508 21.1468 50.4163 21.281C50.2817 21.4152 50.0992 21.4906 49.9089 21.4906Z" fill="#1C2426"/>
<path style="mix-blend-mode:screen" d="M9.72113 13.1355C9.72113 13.1355 9.20215 12.9514 8.36621 13.6983C8.36621 13.6983 10.7521 13.3613 9.72113 13.1355Z" fill="url(#paint14_linear_24_2147)"/>
<path d="M10.5047 20.0593L9.98226 19.236L7.1958 19.1387H7.09131C7.54062 20.0663 6.332 20.8757 11.9676 20.8757H13.4061V20.0593H10.5047Z" fill="url(#paint15_linear_24_2147)"/>
<path d="M18.0876 15.8661C17.132 15.8675 16.1966 16.1401 15.3905 16.6519C14.5844 17.1637 13.941 17.8937 13.5352 18.7566L13.1173 20.1462C13.081 20.3935 13.0624 20.6431 13.0615 20.8931H23.1137C23.115 20.2337 22.9861 19.5806 22.7342 18.971C22.4822 18.3613 22.1123 17.8072 21.6455 17.3404C21.1787 16.8735 20.6242 16.5029 20.0137 16.25C19.4032 15.997 18.7487 15.8666 18.0876 15.8661Z" fill="black"/>
<path d="M22.3925 20.8827C22.3925 21.7328 22.1397 22.5638 21.6661 23.2706C21.1926 23.9773 20.5194 24.5282 19.732 24.8533C18.9445 25.1785 18.078 25.2634 17.2421 25.0973C16.4062 24.9312 15.6385 24.5215 15.0361 23.9202C14.4337 23.3188 14.0236 22.5528 13.8578 21.7189C13.6919 20.8851 13.7777 20.0209 14.1044 19.2357C14.431 18.4505 14.9838 17.7796 15.6928 17.3078C16.4018 16.836 17.2351 16.5845 18.0874 16.5852C18.6531 16.5852 19.2132 16.6964 19.7357 16.9124C20.2583 17.1284 20.733 17.445 21.1328 17.8441C21.5326 18.2432 21.8497 18.717 22.0658 19.2384C22.282 19.7597 22.393 20.3185 22.3925 20.8827Z" fill="url(#paint16_radial_24_2147)"/>
<path d="M18.0876 23.384C17.5899 23.3847 17.1032 23.2381 16.6892 22.9628C16.2751 22.6874 15.9522 22.2957 15.7614 21.8372C15.5707 21.3788 15.5206 20.8741 15.6175 20.3873C15.7144 19.9004 15.954 19.4531 16.3059 19.1021C16.6578 18.7511 17.1062 18.5122 17.5944 18.4155C18.0825 18.3188 18.5884 18.3688 19.0481 18.5591C19.5077 18.7493 19.9005 19.0714 20.1765 19.4844C20.4526 19.8974 20.5996 20.3828 20.5989 20.8792C20.5971 21.543 20.3319 22.179 19.8613 22.6484C19.3908 23.1177 18.7531 23.3822 18.0876 23.384Z" fill="url(#paint17_radial_24_2147)"/>
<path style="mix-blend-mode:multiply" d="M18.0876 23.384C17.5899 23.3847 17.1032 23.2381 16.6892 22.9628C16.2751 22.6874 15.9522 22.2957 15.7614 21.8372C15.5707 21.3788 15.5206 20.8741 15.6175 20.3873C15.7144 19.9004 15.954 19.4531 16.3059 19.1021C16.6578 18.7511 17.1062 18.5122 17.5944 18.4155C18.0825 18.3188 18.5884 18.3688 19.0481 18.5591C19.5077 18.7493 19.9005 19.0714 20.1765 19.4844C20.4526 19.8974 20.5996 20.3828 20.5989 20.8792C20.598 21.5433 20.3331 22.1798 19.8623 22.6494C19.3916 23.1189 18.7533 23.3831 18.0876 23.384Z" fill="url(#paint18_linear_24_2147)"/>
<path d="M18.0876 21.5949C17.9457 21.5949 17.807 21.5529 17.689 21.4743C17.571 21.3956 17.479 21.2838 17.4247 21.1531C17.3704 21.0223 17.3562 20.8784 17.3839 20.7396C17.4116 20.6008 17.4799 20.4732 17.5803 20.3732C17.6806 20.2731 17.8085 20.2049 17.9476 20.1773C18.0868 20.1497 18.2311 20.1639 18.3622 20.218C18.4933 20.2722 18.6054 20.3639 18.6842 20.4816C18.7631 20.5993 18.8051 20.7377 18.8051 20.8792C18.8051 21.069 18.7295 21.251 18.595 21.3853C18.4604 21.5195 18.2779 21.5949 18.0876 21.5949Z" fill="#1C2426"/>
<path style="mix-blend-mode:multiply" d="M60.2849 17.9471L56.3351 18.1555L54.8374 20.6325L60.2849 20.0663V17.9471Z" fill="url(#paint19_linear_24_2147)"/>
<path d="M32.6818 6.31588C32.6818 6.31588 26.5341 6.95512 22.4868 10.919L53.6011 10.0054C53.6011 10.0054 53.9494 7.68815 53.6011 6.7154C50.6509 5.14512 40.6859 5.41262 32.6818 6.31588Z" fill="url(#paint20_linear_24_2147)"/>
<path d="M36.0742 6.33672V10.0054H37.9864C37.9864 10.0054 37.4953 6.94816 38.2059 6.07269L36.0742 6.33672Z" fill="#212121"/>
<path d="M50.5706 6.07269C50.2711 6.07269 50.0412 6.4201 49.874 6.25335V10.0054H50.6298C50.6298 10.0054 50.5428 7.24693 50.5706 6.07269Z" fill="#212121"/>
<path d="M42.4518 6.29156C47.3768 6.29156 51.5809 6.54864 53.3433 6.94121C53.3085 7.63602 53.2214 8.62266 53.1553 9.31748L24.4582 10.1547C28.2025 7.45537 32.9326 6.7953 32.9883 6.78835H33.0196C34.6776 6.4861 38.293 6.2985 42.4518 6.2985V6.29156ZM42.4518 5.59674C38.5229 5.59674 34.7124 5.76697 32.8977 6.10048C32.8977 6.10048 26.5341 6.93773 22.4868 10.9017L53.7857 9.98798C53.7857 9.98798 54.0539 7.41716 54.0539 6.41315C52.4586 5.86424 47.3664 5.59674 42.4518 5.59674Z" fill="#303030"/>
<path d="M33.5627 14.9455C33.0158 14.9455 32.5874 14.6849 32.5874 14.3549C32.5874 14.0248 33.0158 13.7678 33.5627 13.7678C34.1095 13.7678 34.5379 14.0248 34.5379 14.3549C34.5379 14.6849 34.1165 14.9455 33.5627 14.9455ZM33.5627 13.938C33.1273 13.938 32.7616 14.1291 32.7616 14.3549C32.7616 14.5807 33.1273 14.7718 33.5627 14.7718C33.998 14.7718 34.3638 14.5807 34.3638 14.3549C34.3638 14.1291 34.0015 13.9345 33.5627 13.9345V13.938Z" fill="#C9C9C9"/>
<path d="M34.458 14.3549C34.458 14.6328 34.0609 14.8586 33.5698 14.8586C33.0787 14.8586 32.6816 14.6328 32.6816 14.3549C32.6816 14.077 33.0787 13.8546 33.5698 13.8546C34.0609 13.8546 34.458 14.077 34.458 14.3549Z" fill="url(#paint21_linear_24_2147)"/>
<path d="M34.8132 14.3514C34.8132 14.3984 34.7944 14.4435 34.7611 14.4767C34.7278 14.5099 34.6826 14.5286 34.6355 14.5286H32.4238C32.4001 14.5286 32.3768 14.5239 32.355 14.5148C32.3332 14.5057 32.3135 14.4923 32.2969 14.4755C32.2804 14.4587 32.2674 14.4387 32.2586 14.4168C32.2499 14.3949 32.2457 14.3715 32.2461 14.348C32.2457 14.3249 32.2498 14.3019 32.2584 14.2804C32.2669 14.2589 32.2797 14.2394 32.2959 14.2229C32.3121 14.2064 32.3315 14.1933 32.3528 14.1843C32.3742 14.1754 32.3971 14.1708 32.4203 14.1708L34.639 14.0631C34.7365 14.0631 34.9002 14.1256 34.8132 14.341V14.3514Z" fill="url(#paint22_linear_24_2147)"/>
<path d="M45.092 14.9455C44.5451 14.9455 44.1167 14.6849 44.1167 14.3549C44.1167 14.0248 44.5451 13.7678 45.092 13.7678C45.6388 13.7678 46.0672 14.0248 46.0672 14.3549C46.0672 14.6849 45.6388 14.9455 45.092 14.9455ZM45.092 13.938C44.6566 13.938 44.2909 14.1291 44.2909 14.3549C44.2909 14.5807 44.6392 14.7718 45.092 14.7718C45.5448 14.7718 45.8931 14.5807 45.8931 14.3549C45.8931 14.1291 45.5273 13.9345 45.092 13.9345V13.938Z" fill="#C9C9C9"/>
<path d="M45.98 14.3549C45.98 14.6328 45.5829 14.8586 45.0918 14.8586C44.6007 14.8586 44.2036 14.6328 44.2036 14.3549C44.2036 14.077 44.6007 13.8546 45.0918 13.8546C45.5829 13.8546 45.98 14.077 45.98 14.3549Z" fill="url(#paint23_linear_24_2147)"/>
<path d="M46.3351 14.3514C46.3351 14.3984 46.3164 14.4435 46.2831 14.4767C46.2498 14.5099 46.2046 14.5286 46.1575 14.5286H43.9457C43.9221 14.5286 43.8987 14.5239 43.8769 14.5148C43.8552 14.5057 43.8354 14.4923 43.8189 14.4755C43.8023 14.4587 43.7893 14.4387 43.7806 14.4168C43.7719 14.3949 43.7676 14.3715 43.7681 14.348C43.7676 14.3249 43.7718 14.3019 43.7803 14.2804C43.7889 14.2589 43.8016 14.2394 43.8179 14.2229C43.8341 14.2064 43.8534 14.1933 43.8748 14.1843C43.8962 14.1754 43.9191 14.1708 43.9423 14.1708L46.161 14.0631C46.2585 14.0631 46.4222 14.1256 46.3351 14.341V14.3514Z" fill="url(#paint24_linear_24_2147)"/>
<path d="M23.5419 10.1478L23.1309 10.589L23.3921 10.8391L23.9563 10.655L23.5419 10.1478Z" fill="url(#paint25_linear_24_2147)"/>
<path d="M25.0744 10.4222L24.8968 9.11944C24.8654 8.88321 24.5798 8.77204 24.2768 8.87279C23.6185 9.1125 23.3677 10.4813 23.3991 10.5403C23.5732 10.8878 24.0156 10.853 24.538 10.8495C24.855 10.8495 25.1058 10.655 25.0744 10.4222Z" fill="url(#paint26_linear_24_2147)"/>
<path style="mix-blend-mode:multiply" d="M25.0744 10.4222L24.8968 9.11944C24.8654 8.88321 24.5798 8.77204 24.2768 8.87279C23.6185 9.1125 23.3677 10.4813 23.3991 10.5403C23.5732 10.8878 24.0156 10.853 24.538 10.8495C24.855 10.8495 25.1058 10.655 25.0744 10.4222Z" fill="url(#paint27_radial_24_2147)"/>
<path style="mix-blend-mode:screen" d="M25.0744 10.4222L24.8968 9.11944C24.8654 8.88321 24.5798 8.77204 24.2768 8.87279C23.6185 9.1125 23.3677 10.4813 23.3991 10.5403C23.5732 10.8878 24.0156 10.853 24.538 10.8495C24.855 10.8495 25.1058 10.655 25.0744 10.4222Z" fill="url(#paint28_linear_24_2147)"/>
<path d="M17.8192 13.7191C17.8192 13.7864 17.7924 13.8509 17.7447 13.8985C17.697 13.946 17.6323 13.9727 17.5649 13.9727H16.304C16.2708 13.9727 16.2379 13.9662 16.2072 13.9534C16.1766 13.9406 16.1488 13.9218 16.1255 13.8982C16.1021 13.8747 16.0837 13.8467 16.0713 13.8159C16.0589 13.7852 16.0528 13.7523 16.0532 13.7191C16.0532 13.6528 16.0797 13.5892 16.1267 13.5423C16.1737 13.4953 16.2375 13.469 16.304 13.469H17.5649C17.6317 13.469 17.6959 13.4952 17.7435 13.542C17.7911 13.5889 17.8182 13.6525 17.8192 13.7191Z" fill="#A15600"/>
<path d="M17.8196 13.674C17.8196 13.7412 17.7928 13.8057 17.7452 13.8533C17.6975 13.9008 17.6328 13.9276 17.5654 13.9276H16.3045C16.2377 13.9267 16.1739 13.8995 16.1269 13.8521C16.08 13.8046 16.0537 13.7406 16.0537 13.674C16.0537 13.6073 16.08 13.5433 16.1269 13.4958C16.1739 13.4484 16.2377 13.4213 16.3045 13.4203H17.5654C17.6328 13.4203 17.6975 13.4471 17.7452 13.4946C17.7928 13.5422 17.8196 13.6067 17.8196 13.674Z" fill="url(#paint29_linear_24_2147)"/>
<path d="M60.2851 12.9618L59.8532 10.8113L55.9173 6.09006L55.4053 7.10101L59.0938 13.7191H60.2851V12.9618Z" fill="url(#paint30_linear_24_2147)"/>
<path style="mix-blend-mode:overlay" d="M59.6756 13.1702L56.1855 6.90995L56.3597 6.56949L59.8776 10.794L60.2851 12.8159V13.1702H59.6756Z" fill="url(#paint31_linear_24_2147)"/>
<path d="M59.7658 12.795C59.5777 12.795 59.4384 12.4962 59.3792 12.2009C59.32 11.9057 59.3409 11.5374 59.5394 11.5061H59.5707C59.7588 11.5061 59.8981 11.8014 59.9574 12.0967C60.0166 12.392 59.9957 12.7637 59.7971 12.7915L59.7658 12.795ZM59.5707 11.6764C59.5202 11.8358 59.5202 12.0068 59.5707 12.1662C59.5867 12.3334 59.6591 12.4902 59.7762 12.6109C59.8301 12.4532 59.8301 12.2822 59.7762 12.1245C59.7649 11.9551 59.6918 11.7957 59.5707 11.6764Z" fill="#FF6963"/>
<path d="M59.4527 11.3498C59.3413 11.3498 59.2577 11.1726 59.2228 11.0024C59.188 10.8322 59.2019 10.6063 59.3169 10.582H59.3378C59.4492 10.582 59.5328 10.7592 59.5677 10.9294C59.6025 11.0997 59.5886 11.3255 59.4701 11.3498H59.4527ZM59.3378 10.6828C59.3062 10.7775 59.3062 10.8799 59.3378 10.9746C59.345 11.0744 59.3883 11.1682 59.4597 11.2386C59.491 11.1439 59.491 11.0416 59.4597 10.9468C59.4512 10.8473 59.4081 10.7539 59.3378 10.6828Z" fill="#FF6963"/>
<path d="M57.3939 8.20926H56.7495V8.31696H57.3939V8.20926Z" fill="#FF6963"/>
<path d="M57.7112 8.77203H57.0703V8.87973H57.7112V8.77203Z" fill="#FF6963"/>
<path d="M58.0315 9.33484H57.3906V9.44254H58.0315V9.33484Z" fill="#FF6963"/>
<path d="M58.3587 9.89764H57.7144V10.0053H58.3587V9.89764Z" fill="#FF6963"/>
<path d="M58.6795 10.4604H58.0352V10.5681H58.6795V10.4604Z" fill="#FF6963"/>
<path d="M54.8864 4.84982L54.7749 6.19777L55.4053 7.10103L55.8999 6.06922L54.8864 4.84982Z" fill="white"/>
<path style="mix-blend-mode:multiply" d="M60.2849 16.4775H58.4946V17.0438H60.2849V16.4775Z" fill="url(#paint32_linear_24_2147)"/>
<path d="M8.73569 14.4035C8.73569 14.6293 8.26548 14.8135 8.07391 14.8135C7.97787 14.7958 7.89108 14.7451 7.82861 14.6702C7.76614 14.5953 7.73193 14.501 7.73193 14.4035C7.73193 14.3061 7.76614 14.2118 7.82861 14.1369C7.89108 14.062 7.97787 14.0113 8.07391 13.9936C8.26548 13.9936 8.73569 14.1777 8.73569 14.4035Z" fill="#A3A3A3"/>
<path d="M7.06006 16.6756L6.01514 16.283C5.89671 17.2766 6.11963 18.3675 6.79186 18.9824L7.18545 18.2563L7.06006 16.6756Z" fill="url(#paint33_linear_24_2147)"/>
<path d="M6.84421 18.1903C6.86398 18.1899 6.88303 18.1828 6.89822 18.1702C6.91342 18.1575 6.92385 18.1401 6.9278 18.1208C6.93034 18.1098 6.93063 18.0985 6.92865 18.0874C6.92667 18.0763 6.92246 18.0657 6.91627 18.0563C6.91009 18.0469 6.90206 18.0388 6.89267 18.0326C6.88328 18.0264 6.87271 18.0221 6.86162 18.02L6.14062 17.8637C6.15784 17.9285 6.17878 17.9923 6.20332 18.0548L6.82331 18.1868L6.84421 18.1903Z" fill="#808080"/>
<path d="M6.84433 17.0369C6.86402 17.0329 6.88172 17.0222 6.89443 17.0067C6.90714 16.9912 6.91408 16.9718 6.91408 16.9518C6.91408 16.9317 6.90714 16.9123 6.89443 16.8968C6.88172 16.8813 6.86402 16.8706 6.84433 16.8667L5.97705 16.6825C5.97705 16.7416 5.97705 16.8006 5.97705 16.8597L6.8095 17.0369H6.84433Z" fill="#808080"/>
<path d="M6.86178 17.2523L6.00146 17.0612C6.00146 17.1202 6.00146 17.1828 6.00146 17.2418L6.80954 17.4121H6.83043C6.85021 17.4117 6.86926 17.4046 6.88445 17.392C6.89965 17.3793 6.91008 17.3619 6.91403 17.3426C6.91691 17.3239 6.91331 17.3047 6.90381 17.2883C6.89431 17.2719 6.87949 17.2592 6.86178 17.2523Z" fill="#808080"/>
<path d="M6.86142 17.6344L6.04639 17.4607C6.04639 17.5233 6.07077 17.5858 6.0847 17.6448L6.82311 17.8047H6.84401C6.86369 17.8007 6.88139 17.79 6.8941 17.7745C6.90682 17.759 6.91376 17.7396 6.91376 17.7195C6.91376 17.6995 6.90682 17.6801 6.8941 17.6646C6.88139 17.6491 6.86369 17.6384 6.84401 17.6344H6.86142Z" fill="#808080"/>
<path d="M6.84411 18.5724C6.86379 18.5684 6.88149 18.5578 6.8942 18.5423C6.90691 18.5268 6.91385 18.5074 6.91385 18.4873C6.91385 18.4673 6.90691 18.4479 6.8942 18.4324C6.88149 18.4168 6.86379 18.4062 6.84411 18.4022L6.27637 18.2806C6.3112 18.3501 6.34603 18.4161 6.38434 18.4821L6.80579 18.5724H6.84411Z" fill="#808080"/>
<path d="M48.5854 4.51281L49.5328 4.14456L49.8846 4.5684L48.5854 4.51281Z" fill="url(#paint34_linear_24_2147)"/>
</g>
<defs>
<radialGradient id="paint0_radial_24_2147" cx="0" cy="0" r="1" gradientUnits="userSpaceOnUse" gradientTransform="translate(49.6511 64.1447) scale(5.17236 0.87703)">
<stop stop-color="#545454"/>
<stop offset="0.16" stop-color="#7D7D7D"/>
<stop offset="0.35" stop-color="#ABABAB"/>
<stop offset="0.54" stop-color="#D0D0D0"/>
<stop offset="0.72" stop-color="#EAEAEA"/>
<stop offset="0.88" stop-color="#F9F9F9"/>
<stop offset="1" stop-color="white"/>
</radialGradient>
<radialGradient id="paint1_radial_24_2147" cx="0" cy="0" r="1" gradientUnits="userSpaceOnUse" gradientTransform="translate(33.7091 61.4705) scale(33.389 0.892977)">
<stop stop-color="#949494"/>
<stop offset="0.14" stop-color="#ACACAC"/>
<stop offset="0.39" stop-color="#D0D0D0"/>
<stop offset="0.63" stop-color="#EAEAEA"/>
<stop offset="0.83" stop-color="#F9F9F9"/>
<stop offset="1" stop-color="white"/>
</radialGradient>
<radialGradient id="paint2_radial_24_2147" cx="0" cy="0" r="1" gradientUnits="userSpaceOnUse" gradientTransform="translate(18.0876 64.1447) scale(5.17236 0.87703)">
<stop stop-color="#545454"/>
<stop offset="0.16" stop-color="#7D7D7D"/>
<stop offset="0.35" stop-color="#ABABAB"/>
<stop offset="0.54" stop-color="#D0D0D0"/>
<stop offset="0.72" stop-color="#EAEAEA"/>
<stop offset="0.88" stop-color="#F9F9F9"/>
<stop offset="1" stop-color="white"/>
</radialGradient>
<linearGradient id="paint3_linear_24_2147" x1="31.386" y1="12.736" x2="31.386" y2="19.1318" gradientUnits="userSpaceOnUse">
<stop offset="0.75"/>
<stop offset="0.76" stop-color="#2B2B2B"/>
<stop offset="0.79" stop-color="#767676"/>
<stop offset="0.81" stop-color="#B1B1B1"/>
<stop offset="0.83" stop-color="#DBDBDB"/>
<stop offset="0.85" stop-color="#F5F5F5"/>
<stop offset="0.86" stop-color="white"/>
</linearGradient>
<linearGradient id="paint4_linear_24_2147" x1="33.1377" y1="4.24531" x2="33.1377" y2="20.8201" gradientUnits="userSpaceOnUse">
<stop stop-color="white"/>
<stop offset="0.03" stop-color="#FAFAFA"/>
<stop offset="0.09" stop-color="#F2F2F2"/>
<stop offset="0.26" stop-color="#FBFBFB"/>
<stop offset="0.48" stop-color="white"/>
<stop offset="0.71" stop-color="#FDFDFD"/>
<stop offset="0.8" stop-color="#F6F6F6"/>
<stop offset="0.82" stop-color="#F2F2F2"/>
<stop offset="0.86" stop-color="#EAEAEA"/>
<stop offset="0.93" stop-color="#D3D3D3"/>
<stop offset="1" stop-color="#B5B5B5"/>
</linearGradient>
<linearGradient id="paint5_linear_24_2147" x1="33.1377" y1="7.59432" x2="33.1377" y2="4.00213" gradientUnits="userSpaceOnUse">
<stop stop-color="white"/>
<stop offset="0.03" stop-color="#FAFAFA"/>
<stop offset="0.09" stop-color="#F2F2F2"/>
<stop offset="0.26" stop-color="#FBFBFB"/>
<stop offset="0.48" stop-color="white"/>
<stop offset="0.62" stop-color="#FDFDFD"/>
<stop offset="0.66" stop-color="#F6F6F6"/>
<stop offset="0.68" stop-color="#F2F2F2"/>
<stop offset="0.75" stop-color="#EAEAEA"/>
<stop offset="0.88" stop-color="#D3D3D3"/>
<stop offset="1" stop-color="#B5B5B5"/>
</linearGradient>
<linearGradient id="paint6_linear_24_2147" x1="54.5728" y1="12.9861" x2="60.2502" y2="13.0455" gradientUnits="userSpaceOnUse">
<stop stop-color="white"/>
<stop offset="0.03" stop-color="#FAFAFA"/>
<stop offset="0.09" stop-color="#F2F2F2"/>
<stop offset="0.26" stop-color="#FBFBFB"/>
<stop offset="0.48" stop-color="white"/>
<stop offset="0.62" stop-color="#FDFDFD"/>
<stop offset="0.66" stop-color="#F6F6F6"/>
<stop offset="0.68" stop-color="#F2F2F2"/>
<stop offset="0.75" stop-color="#EAEAEA"/>
<stop offset="0.88" stop-color="#D3D3D3"/>
<stop offset="1" stop-color="#B5B5B5"/>
</linearGradient>
<linearGradient id="paint7_linear_24_2147" x1="6.17529" y1="14.0353" x2="13.0613" y2="14.0353" gradientUnits="userSpaceOnUse">
<stop offset="0.01" stop-color="#292929"/>
<stop offset="0.19" stop-color="#787878"/>
<stop offset="0.23" stop-color="#7F7F7F"/>
<stop offset="0.35" stop-color="#8E8E8E"/>
<stop offset="0.4" stop-color="#989898"/>
<stop offset="0.54" stop-color="#B2B2B2"/>
<stop offset="0.69" stop-color="#C5C5C5"/>
<stop offset="0.84" stop-color="#D0D0D0"/>
<stop offset="1" stop-color="#D4D4D4"/>
</linearGradient>
<linearGradient id="paint8_linear_24_2147" x1="6.17529" y1="14.0353" x2="13.0613" y2="14.0353" gradientUnits="userSpaceOnUse">
<stop stop-color="white"/>
<stop offset="0.06" stop-color="#EAEAEA"/>
<stop offset="0.24" stop-color="#B0B0B0"/>
<stop offset="0.42" stop-color="#808080"/>
<stop offset="0.59" stop-color="#5A5A5A"/>
<stop offset="0.75" stop-color="#3F3F3F"/>
<stop offset="0.88" stop-color="#2F2F2F"/>
<stop offset="0.99" stop-color="#292929"/>
</linearGradient>
<linearGradient id="paint9_linear_24_2147" x1="31.5045" y1="12.736" x2="31.5045" y2="19.1318" gradientUnits="userSpaceOnUse">
<stop stop-color="#E6E6E6"/>
<stop offset="1" stop-color="white"/>
</linearGradient>
<linearGradient id="paint10_linear_24_2147" x1="24.3677" y1="4.14456" x2="24.3677" y2="20.8201" gradientUnits="userSpaceOnUse">
<stop stop-color="#5F5A5E"/>
<stop offset="0.28" stop-color="#262529"/>
<stop offset="0.48" stop-color="#29282C"/>
<stop offset="0.63" stop-color="#333135"/>
<stop offset="0.76" stop-color="#434144"/>
<stop offset="0.81" stop-color="#4A484B"/>
</linearGradient>
<radialGradient id="paint11_radial_24_2147" cx="0" cy="0" r="1" gradientUnits="userSpaceOnUse" gradientTransform="translate(49.9091 20.775) scale(4.30508 4.29396)">
<stop offset="0.7" stop-color="#504E51"/>
<stop offset="0.77" stop-color="#494749"/>
<stop offset="0.88" stop-color="#343334"/>
<stop offset="1" stop-color="#141414"/>
</radialGradient>
<radialGradient id="paint12_radial_24_2147" cx="0" cy="0" r="1" gradientUnits="userSpaceOnUse" gradientTransform="translate(49.9088 20.775) scale(2.51129 2.50481)">
<stop stop-color="white"/>
<stop offset="0.1" stop-color="#DCDCDC"/>
<stop offset="0.19" stop-color="#C5C5C5"/>
<stop offset="0.25" stop-color="#BDBDBD"/>
<stop offset="0.28" stop-color="#C9C9C9"/>
<stop offset="0.37" stop-color="#DFDFDF"/>
<stop offset="0.45" stop-color="#ECECEC"/>
<stop offset="0.52" stop-color="#F0F0F0"/>
<stop offset="0.68" stop-color="#F0F0F0"/>
<stop offset="0.7" stop-color="#F0F0F0"/>
<stop offset="0.85" stop-color="#EEEEEE"/>
<stop offset="0.9" stop-color="#E7E7E7"/>
<stop offset="0.93" stop-color="#DCDCDC"/>
<stop offset="0.96" stop-color="#CBCBCB"/>
<stop offset="0.99" stop-color="#B5B5B5"/>
<stop offset="1" stop-color="#A8A8A8"/>
</radialGradient>
<linearGradient id="paint13_linear_24_2147" x1="48.3867" y1="18.8747" x2="51.4838" y2="22.7595" gradientUnits="userSpaceOnUse">
<stop stop-color="white"/>
<stop offset="0.07" stop-color="white"/>
<stop offset="0.51" stop-color="white"/>
<stop offset="0.62" stop-color="#FDFDFD"/>
<stop offset="0.66" stop-color="#F6F6F6"/>
<stop offset="0.7" stop-color="#E9E9E9"/>
<stop offset="0.73" stop-color="#D8D8D8"/>
<stop offset="0.75" stop-color="#BDBDBD"/>
<stop offset="0.76" stop-color="#C2C2C2"/>
<stop offset="0.78" stop-color="#D9D9D9"/>
<stop offset="0.81" stop-color="#EAEAEA"/>
<stop offset="0.84" stop-color="#F6F6F6"/>
<stop offset="0.89" stop-color="#FDFDFD"/>
<stop offset="1" stop-color="white"/>
</linearGradient>
<linearGradient id="paint14_linear_24_2147" x1="8.36621" y1="13.4065" x2="9.98236" y2="13.4065" gradientUnits="userSpaceOnUse">
<stop stop-color="#707070"/>
<stop offset="1"/>
</linearGradient>
<linearGradient id="paint15_linear_24_2147" x1="10.2505" y1="19.1491" x2="10.2505" y2="20.8792" gradientUnits="userSpaceOnUse">
<stop stop-color="#5F5A5E"/>
<stop offset="0.28" stop-color="#262529"/>
<stop offset="0.48" stop-color="#29282C"/>
<stop offset="0.63" stop-color="#333135"/>
<stop offset="0.76" stop-color="#434144"/>
<stop offset="0.81" stop-color="#4A484B"/>
</linearGradient>
<radialGradient id="paint16_radial_24_2147" cx="0" cy="0" r="1" gradientUnits="userSpaceOnUse" gradientTransform="translate(18.0874 20.8792) scale(4.30507 4.29396)">
<stop offset="0.7" stop-color="#504E51"/>
<stop offset="0.77" stop-color="#494749"/>
<stop offset="0.88" stop-color="#343334"/>
<stop offset="1" stop-color="#141414"/>
</radialGradient>
<radialGradient id="paint17_radial_24_2147" cx="0" cy="0" r="1" gradientUnits="userSpaceOnUse" gradientTransform="translate(18.0876 20.8792) scale(2.51129 2.50481)">
<stop stop-color="white"/>
<stop offset="0.1" stop-color="#DCDCDC"/>
<stop offset="0.19" stop-color="#C5C5C5"/>
<stop offset="0.25" stop-color="#BDBDBD"/>
<stop offset="0.28" stop-color="#C9C9C9"/>
<stop offset="0.37" stop-color="#DFDFDF"/>
<stop offset="0.45" stop-color="#ECECEC"/>
<stop offset="0.52" stop-color="#F0F0F0"/>
<stop offset="0.68" stop-color="#F0F0F0"/>
<stop offset="0.7" stop-color="#F0F0F0"/>
<stop offset="0.85" stop-color="#EEEEEE"/>
<stop offset="0.9" stop-color="#E7E7E7"/>
<stop offset="0.93" stop-color="#DCDCDC"/>
<stop offset="0.96" stop-color="#CBCBCB"/>
<stop offset="0.99" stop-color="#B5B5B5"/>
<stop offset="1" stop-color="#A8A8A8"/>
</radialGradient>
<linearGradient id="paint18_linear_24_2147" x1="16.562" y1="18.9789" x2="19.6626" y2="22.8603" gradientUnits="userSpaceOnUse">
<stop stop-color="white"/>
<stop offset="0.11" stop-color="#FDFDFD"/>
<stop offset="0.16" stop-color="#F6F6F6"/>
<stop offset="0.19" stop-color="#EAEAEA"/>
<stop offset="0.22" stop-color="#D9D9D9"/>
<stop offset="0.24" stop-color="#C2C2C2"/>
<stop offset="0.25" stop-color="#C1C1C1"/>
<stop offset="0.27" stop-color="#D8D8D8"/>
<stop offset="0.3" stop-color="#E9E9E9"/>
<stop offset="0.34" stop-color="#F6F6F6"/>
<stop offset="0.38" stop-color="#FDFDFD"/>
<stop offset="0.49" stop-color="white"/>
<stop offset="0.93" stop-color="white"/>
<stop offset="1" stop-color="white"/>
</linearGradient>
<linearGradient id="paint19_linear_24_2147" x1="57.5612" y1="17.9922" x2="57.5612" y2="20.4137" gradientUnits="userSpaceOnUse">
<stop stop-color="#5F5A5E"/>
<stop offset="0.28" stop-color="#262529"/>
<stop offset="0.48" stop-color="#29282C"/>
<stop offset="0.63" stop-color="#333135"/>
<stop offset="0.76" stop-color="#434144"/>
<stop offset="0.81" stop-color="#4A484B"/>
</linearGradient>
<linearGradient id="paint20_linear_24_2147" x1="38.1223" y1="5.47168" x2="38.1223" y2="10.5021" gradientUnits="userSpaceOnUse">
<stop stop-color="#5F5A5E"/>
<stop offset="0.28" stop-color="#262529"/>
<stop offset="0.48" stop-color="#29282C"/>
<stop offset="0.63" stop-color="#333135"/>
<stop offset="0.76" stop-color="#434144"/>
<stop offset="0.81" stop-color="#4A484B"/>
</linearGradient>
<linearGradient id="paint21_linear_24_2147" x1="33.5698" y1="13.7539" x2="33.5698" y2="15.015" gradientUnits="userSpaceOnUse">
<stop stop-color="#A8A8A8"/>
<stop offset="0.13" stop-color="#AAAAAA"/>
<stop offset="0.18" stop-color="#B1B1B1"/>
<stop offset="0.21" stop-color="#BDBDBD"/>
<stop offset="0.24" stop-color="#CECECE"/>
<stop offset="0.26" stop-color="#E4E4E4"/>
<stop offset="0.27" stop-color="#E9E9E9"/>
<stop offset="0.54" stop-color="#F2F2F2"/>
<stop offset="0.7" stop-color="#DFDFDF"/>
<stop offset="0.75" stop-color="#C6C6C6"/>
<stop offset="0.85" stop-color="#9E9E9E"/>
<stop offset="0.93" stop-color="#868686"/>
<stop offset="0.98" stop-color="#7D7D7D"/>
</linearGradient>
<linearGradient id="paint22_linear_24_2147" x1="33.406" y1="14.2958" x2="33.406" y2="14.7509" gradientUnits="userSpaceOnUse">
<stop stop-color="#999999"/>
<stop offset="0.26" stop-color="#EBEBEB"/>
<stop offset="0.69" stop-color="#5C5C5C"/>
</linearGradient>
<linearGradient id="paint23_linear_24_2147" x1="45.0918" y1="13.7539" x2="45.0918" y2="15.015" gradientUnits="userSpaceOnUse">
<stop stop-color="#A8A8A8"/>
<stop offset="0.13" stop-color="#AAAAAA"/>
<stop offset="0.18" stop-color="#B1B1B1"/>
<stop offset="0.21" stop-color="#BDBDBD"/>
<stop offset="0.24" stop-color="#CECECE"/>
<stop offset="0.26" stop-color="#E4E4E4"/>
<stop offset="0.27" stop-color="#E9E9E9"/>
<stop offset="0.54" stop-color="#F2F2F2"/>
<stop offset="0.7" stop-color="#DFDFDF"/>
<stop offset="0.75" stop-color="#C6C6C6"/>
<stop offset="0.85" stop-color="#9E9E9E"/>
<stop offset="0.93" stop-color="#868686"/>
<stop offset="0.98" stop-color="#7D7D7D"/>
</linearGradient>
<linearGradient id="paint24_linear_24_2147" x1="44.928" y1="14.3375" x2="44.928" y2="14.7926" gradientUnits="userSpaceOnUse">
<stop stop-color="#999999"/>
<stop offset="0.26" stop-color="#EBEBEB"/>
<stop offset="0.69" stop-color="#5C5C5C"/>
</linearGradient>
<linearGradient id="paint25_linear_24_2147" x1="23.5419" y1="10.1478" x2="23.5419" y2="10.8391" gradientUnits="userSpaceOnUse">
<stop stop-color="#5F5A5E"/>
<stop offset="0.28"/>
<stop offset="0.75"/>
<stop offset="0.81"/>
</linearGradient>
<linearGradient id="paint26_linear_24_2147" x1="23.4198" y1="9.54419" x2="25.0789" y2="9.32106" gradientUnits="userSpaceOnUse">
<stop offset="0.22" stop-color="#545454"/>
<stop offset="0.4" stop-color="#7D7D7D"/>
<stop offset="0.55" stop-color="#7F7F7F"/>
<stop offset="0.62" stop-color="#878787"/>
<stop offset="0.68" stop-color="#949494"/>
<stop offset="0.72" stop-color="#A6A6A6"/>
<stop offset="0.77" stop-color="#BEBEBE"/>
<stop offset="0.8" stop-color="#DBDBDB"/>
<stop offset="0.83" stop-color="#F2F2F2"/>
<stop offset="0.99" stop-color="#A8A8A8"/>
</linearGradient>
<radialGradient id="paint27_radial_24_2147" cx="0" cy="0" r="1" gradientUnits="userSpaceOnUse" gradientTransform="translate(23.9649 9.35603) rotate(-7.47673) scale(0.997182 0.968965)">
<stop stop-color="white"/>
<stop offset="0.23" stop-color="#FBFBFB"/>
<stop offset="0.45" stop-color="#EFEFEF"/>
<stop offset="0.67" stop-color="#DCDCDC"/>
<stop offset="0.89" stop-color="#C0C0C0"/>
<stop offset="1" stop-color="#B0B0B0"/>
</radialGradient>
<linearGradient id="paint28_linear_24_2147" x1="23.8937" y1="9.06733" x2="24.1364" y2="9.78685" gradientUnits="userSpaceOnUse">
<stop stop-color="#707070"/>
<stop offset="0.34" stop-color="#949494"/>
<stop offset="0.35" stop-color="#919191"/>
<stop offset="0.51" stop-color="#5D5D5D"/>
<stop offset="0.66" stop-color="#353535"/>
<stop offset="0.8" stop-color="#181818"/>
<stop offset="0.91" stop-color="#060606"/>
<stop offset="1"/>
</linearGradient>
<linearGradient id="paint29_linear_24_2147" x1="16.6702" y1="13.5697" x2="16.1586" y2="13.3673" gradientUnits="userSpaceOnUse">
<stop offset="0.01" stop-color="#FF8000"/>
<stop offset="0.1" stop-color="#FF8600"/>
<stop offset="0.21" stop-color="#FF9600"/>
<stop offset="0.34" stop-color="#FFB100"/>
<stop offset="0.44" stop-color="#FFCC00"/>
<stop offset="0.79" stop-color="#FFA400"/>
<stop offset="1" stop-color="#FF8900"/>
</linearGradient>
<linearGradient id="paint30_linear_24_2147" x1="57.8434" y1="5.67317" x2="57.8434" y2="13.2779" gradientUnits="userSpaceOnUse">
<stop stop-color="#DB2A24"/>
<stop offset="1" stop-color="#FF6963"/>
</linearGradient>
<linearGradient id="paint31_linear_24_2147" x1="58.2336" y1="6.20818" x2="58.2336" y2="12.7881" gradientUnits="userSpaceOnUse">
<stop/>
<stop offset="0.1" stop-color="#050202"/>
<stop offset="0.22" stop-color="#140808"/>
<stop offset="0.36" stop-color="#2D1312"/>
<stop offset="0.51" stop-color="#50211F"/>
<stop offset="0.66" stop-color="#7D3431"/>
<stop offset="0.81" stop-color="#B44A46"/>
<stop offset="0.97" stop-color="#F4655F"/>
<stop offset="1" stop-color="#FF6963"/>
</linearGradient>
<linearGradient id="paint32_linear_24_2147" x1="59.3898" y1="16.4671" x2="59.3898" y2="17.0994" gradientUnits="userSpaceOnUse">
<stop stop-color="#E6E6E6"/>
<stop offset="1" stop-color="white"/>
</linearGradient>
<linearGradient id="paint33_linear_24_2147" x1="6.59332" y1="16.3907" x2="6.59332" y2="18.9754" gradientUnits="userSpaceOnUse">
<stop stop-color="#5F5A5E"/>
<stop offset="0.28" stop-color="#262529"/>
<stop offset="0.48" stop-color="#29282C"/>
<stop offset="0.63" stop-color="#333135"/>
<stop offset="0.76" stop-color="#434144"/>
<stop offset="0.81" stop-color="#4A484B"/>
</linearGradient>
<linearGradient id="paint34_linear_24_2147" x1="48.5854" y1="4.35648" x2="49.8846" y2="4.35648" gradientUnits="userSpaceOnUse">
<stop stop-color="#5F5A5E"/>
<stop offset="0.28" stop-color="#262529"/>
<stop offset="0.48" stop-color="#29282C"/>
<stop offset="0.63" stop-color="#333135"/>
<stop offset="0.76" stop-color="#434144"/>
<stop offset="0.81" stop-color="#4A484B"/>
</linearGradient>
<clipPath id="clip0_24_2147">
<rect width="68" height="26" fill="white"/>
</clipPath>
</defs>
</svg>
